STARTFONT 2.1
FONT big5.6c00.16
SIZE 16 72 72
FONTBOUNDINGBOX 16 16 0 -2
STARTPROPERTIES 4
FONT_DESCENT 2
FONT_ASCENT 14
DEFAULT_CHAR 0
COPYRIGHT "Copyright (c) 1992 AT&T - All rights reserved."
ENDPROPERTIES
CHARS 367
STARTCHAR ch-0
ENCODING 0
SWIDTH 1000 0
DWIDTH 16 0
BBX 16 16 0 -2
BITMAP
0401
3fbe
2488
7fc8
2488
3fbe
0408
3f88
2488
3fbe
1509
7fc9
0409
7bcf
0000
0000
ENDCHAR
STARTCHAR ch-1
ENCODING 1
SWIDTH 1000 0
DWIDTH 16 0
BBX 16 16 0 -2
BITMAP
0444
79ff
1044
10fe
1082
7cfe
1082
10fe
1010
7dff
1044
1082
1101
1fff
0000
0000
ENDCHAR
STARTCHAR ch-2
ENCODING 2
SWIDTH 1000 0
DWIDTH 16 0
BBX 16 16 0 -2
BITMAP
0820
3e20
083e
7f54
1c08
2a14
3ffe
2010
27e0
27e0
2100
4ff2
0102
01fe
0000
0000
ENDCHAR
STARTCHAR ch-3
ENCODING 3
SWIDTH 1000 0
DWIDTH 16 0
BBX 16 16 0 -2
BITMAP
0401
7ffe
1108
7fc8
003e
3f88
2488
3f88
24be
3f88
0409
3f89
0409
7fcf
0000
0000
ENDCHAR
STARTCHAR ch-4
ENCODING 4
SWIDTH 1000 0
DWIDTH 16 0
BBX 16 16 0 -2
BITMAP
1f01
0102
061c
7fc8
0a48
121f
0608
7fc8
4a5f
7bc8
4048
5f49
5149
5f4f
0000
0000
ENDCHAR
STARTCHAR ch-5
ENCODING 5
SWIDTH 1000 0
DWIDTH 16 0
BBX 16 16 0 -2
BITMAP
2490
1510
3fbf
20d4
2e88
2a94
2ee3
2098
1fe0
0ff8
0100
7ffd
0101
00ff
0000
0000
ENDCHAR
STARTCHAR ch-6
ENCODING 6
SWIDTH 1000 0
DWIDTH 16 0
BBX 16 16 0 -2
BITMAP
0884
1848
73ff
114a
10cc
7848
13ff
10fc
7c84
10fc
1084
10fd
1001
0fff
0000
0000
ENDCHAR
STARTCHAR ch-8
ENCODING 8
SWIDTH 1000 0
DWIDTH 16 0
BBX 16 16 0 -2
BITMAP
0401
7fde
0008
3f88
2e88
2abf
2e88
3f88
1f3f
1108
1f08
1108
1f09
7fc7
0000
0000
ENDCHAR
STARTCHAR ch-9
ENCODING 9
SWIDTH 1000 0
DWIDTH 16 0
BBX 16 16 0 -2
BITMAP
1e02
123c
1e08
0008
73be
5288
7388
043e
0408
7fc8
0408
1509
2489
0407
0000
0000
ENDCHAR
STARTCHAR ch-11
ENCODING 11
SWIDTH 1000 0
DWIDTH 16 0
BBX 16 16 0 -2
BITMAP
1201
7fbe
1208
7f88
40be
5e88
0008
3f08
083e
1488
2b09
1709
2a89
160f
0000
0000
ENDCHAR
STARTCHAR ch-12
ENCODING 12
SWIDTH 1000 0
DWIDTH 16 0
BBX 16 16 0 -2
BITMAP
027c
7c88
10fe
1092
10fe
7e92
10fe
10aa
107c
7e44
107c
1045
107d
1fff
0000
0000
ENDCHAR
STARTCHAR ch-13
ENCODING 13
SWIDTH 1000 0
DWIDTH 16 0
BBX 16 16 0 -2
BITMAP
3b84
2a9e
3bf0
3b90
3bfe
1210
1fd0
3210
3fff
5210
1f90
1211
1fd1
100f
0000
0000
ENDCHAR
STARTCHAR ch-15
ENCODING 15
SWIDTH 1000 0
DWIDTH 16 0
BBX 16 16 0 -2
BITMAP
0010
1078
1f80
1080
1080
1084
1ffe
1040
1020
1120
1211
1409
1805
3003
0000
0000
ENDCHAR
STARTCHAR ch-16
ENCODING 16
SWIDTH 1000 0
DWIDTH 16 0
BBX 16 16 0 -2
BITMAP
0008
007c
1fc0
1040
1042
1fff
1040
1020
1120
1210
1410
1809
13e5
0003
0000
0000
ENDCHAR
STARTCHAR ch-17
ENCODING 17
SWIDTH 1000 0
DWIDTH 16 0
BBX 16 16 0 -2
BITMAP
3ffc
2008
2008
3ff8
2100
2104
3ffe
2100
2080
2080
2440
2821
3019
2007
0000
0000
ENDCHAR
STARTCHAR ch-19
ENCODING 19
SWIDTH 1000 0
DWIDTH 16 0
BBX 16 16 0 -2
BITMAP
1004
09fe
0904
7f04
21fc
2120
2122
21ff
2120
2510
3f08
0149
0185
0103
0000
0000
ENDCHAR
STARTCHAR ch-20
ENCODING 20
SWIDTH 1000 0
DWIDTH 16 0
BBX 16 16 0 -2
BITMAP
1000
1004
1ffe
1000
2ff8
4000
1ff8
0008
0008
0008
0009
0009
0005
0003
0000
0000
ENDCHAR
STARTCHAR ch-21
ENCODING 21
SWIDTH 1000 0
DWIDTH 16 0
BBX 16 16 0 -2
BITMAP
0800
1ffe
2000
4ff8
0000
7ff8
0008
0108
0108
0208
0209
0405
1803
0001
0000
0000
ENDCHAR
STARTCHAR ch-22
ENCODING 22
SWIDTH 1000 0
DWIDTH 16 0
BBX 16 16 0 -2
BITMAP
0800
0ffe
0800
17fc
2000
4ffc
3fc4
0444
0484
04f4
0815
0815
10a5
2042
0000
0000
ENDCHAR
STARTCHAR ch-24
ENCODING 24
SWIDTH 1000 0
DWIDTH 16 0
BBX 16 16 0 -2
BITMAP
0802
0fff
1000
17fc
2000
5ffc
0004
0444
0444
0444
0844
0845
1045
2043
0000
0000
ENDCHAR
STARTCHAR ch-25
ENCODING 25
SWIDTH 1000 0
DWIDTH 16 0
BBX 16 16 0 -2
BITMAP
0802
0fff
1000
17fc
2000
5ffc
0104
0104
1114
1114
1114
1ff5
0015
0003
0000
0000
ENDCHAR
STARTCHAR ch-26
ENCODING 26
SWIDTH 1000 0
DWIDTH 16 0
BBX 16 16 0 -2
BITMAP
0802
0fff
1000
17fc
2000
5ffc
0004
0924
0924
0924
0924
1125
1125
2023
0000
0000
ENDCHAR
STARTCHAR ch-27
ENCODING 27
SWIDTH 1000 0
DWIDTH 16 0
BBX 16 16 0 -2
BITMAP
0804
0ffe
0800
17fc
2000
5ffc
0484
0444
0824
1fdc
2444
0445
0945
1083
0000
0000
ENDCHAR
STARTCHAR ch-29
ENCODING 29
SWIDTH 1000 0
DWIDTH 16 0
BBX 16 16 0 -2
BITMAP
0800
1ff8
2000
4ff0
0000
3ff8
0208
3fe8
2228
2528
28a8
2029
2025
2043
0000
0000
ENDCHAR
STARTCHAR ch-31
ENCODING 31
SWIDTH 1000 0
DWIDTH 16 0
BBX 16 16 0 -2
BITMAP
0804
0ffe
17fc
2000
5ffc
0484
3fe4
04a4
1fe4
1484
1ff4
0495
08b5
3083
0000
0000
ENDCHAR
STARTCHAR ch-32
ENCODING 32
SWIDTH 1000 0
DWIDTH 16 0
BBX 16 16 0 -2
BITMAP
0800
1ffe
2000
47e0
0000
7ff8
0408
7fc8
4448
7fc8
4448
7fc9
0405
0403
0000
0000
ENDCHAR
STARTCHAR ch-33
ENCODING 33
SWIDTH 1000 0
DWIDTH 16 0
BBX 16 16 0 -2
BITMAP
0802
0fff
17fc
5ffc
0204
07e4
0844
3684
0104
06c4
3b3c
0085
0605
0183
0000
0000
ENDCHAR
STARTCHAR ch-35
ENCODING 35
SWIDTH 1000 0
DWIDTH 16 0
BBX 16 16 0 -2
BITMAP
0800
1ffc
6000
0ff0
0000
7ffc
1248
0a88
0708
3fe8
0708
0a89
3265
0603
0000
0000
ENDCHAR
STARTCHAR ch-36
ENCODING 36
SWIDTH 1000 0
DWIDTH 16 0
BBX 16 16 0 -2
BITMAP
0800
1ffe
6000
0ff8
0000
7ffc
0004
3fe4
2224
3fe4
2525
28a5
3fe5
2023
0000
0000
ENDCHAR
STARTCHAR ch-37
ENCODING 37
SWIDTH 1000 0
DWIDTH 16 0
BBX 16 16 0 -2
BITMAP
0800
1ffe
27e0
5ff8
0008
3fe8
0508
3fe8
2528
2528
29e8
2029
3fe5
2023
0000
0000
ENDCHAR
STARTCHAR ch-38
ENCODING 38
SWIDTH 1000 0
DWIDTH 16 0
BBX 16 16 0 -2
BITMAP
1004
1ffe
2ffc
5ffc
0104
1ff4
0204
0444
0f84
0124
0644
18c5
0335
0c13
0000
0000
ENDCHAR
STARTCHAR ch-39
ENCODING 39
SWIDTH 1000 0
DWIDTH 16 0
BBX 16 16 0 -2
BITMAP
0800
0ffe
1000
17fc
2000
5ffc
0444
1ff4
0104
0fe4
0104
3ffd
0105
0103
0000
0000
ENDCHAR
STARTCHAR ch-40
ENCODING 40
SWIDTH 1000 0
DWIDTH 16 0
BBX 16 16 0 -2
BITMAP
0800
1fff
2ffc
4000
1ffc
0104
1ff4
1414
24a4
0fc4
0484
0305
04c5
1823
0000
0000
ENDCHAR
STARTCHAR ch-42
ENCODING 42
SWIDTH 1000 0
DWIDTH 16 0
BBX 16 16 0 -2
BITMAP
0802
0fff
17fc
2000
5ffc
0204
3ff4
0204
1fc4
1044
1fc4
0515
0915
30f3
0000
0000
ENDCHAR
STARTCHAR ch-43
ENCODING 43
SWIDTH 1000 0
DWIDTH 16 0
BBX 16 16 0 -2
BITMAP
0400
0ffe
33f0
7ffc
0004
3ff4
0924
1244
0924
0004
1fe5
0205
0223
3ff1
0000
0000
ENDCHAR
STARTCHAR ch-44
ENCODING 44
SWIDTH 1000 0
DWIDTH 16 0
BBX 16 16 0 -2
BITMAP
0800
1ffe
2000
47f0
0000
1ffc
0004
1ff4
0284
1ef4
1014
1ef5
0283
1ff1
0000
0000
ENDCHAR
STARTCHAR ch-46
ENCODING 46
SWIDTH 1000 0
DWIDTH 16 0
BBX 16 16 0 -2
BITMAP
0804
0ffe
1ffc
2000
5ff8
0928
0548
0288
1c78
0928
0548
0289
0465
3813
0000
0000
ENDCHAR
STARTCHAR ch-47
ENCODING 47
SWIDTH 1000 0
DWIDTH 16 0
BBX 16 16 0 -2
BITMAP
2000
3ffe
2000
4ff8
0000
1ffc
03c4
0e44
0184
3ff4
1964
0584
0945
3333
0000
0000
ENDCHAR
STARTCHAR ch-48
ENCODING 48
SWIDTH 1000 0
DWIDTH 16 0
BBX 16 16 0 -2
BITMAP
2000
3ffe
4ff8
3ffc
0204
1fc4
1fc4
7ff4
1fc4
1044
1fc4
1fc5
1045
2083
0000
0000
ENDCHAR
STARTCHAR ch-51
ENCODING 51
SWIDTH 1000 0
DWIDTH 16 0
BBX 16 16 0 -2
BITMAP
0802
0fff
1000
17fc
2000
5ffc
1fe4
1324
1fe4
3ff4
2494
2495
7ffd
0003
0000
0000
ENDCHAR
STARTCHAR ch-52
ENCODING 52
SWIDTH 1000 0
DWIDTH 16 0
BBX 16 16 0 -2
BITMAP
0080
0080
0084
008c
3e90
02e0
02c0
04b0
0888
1087
2082
4080
0280
0100
0000
0000
ENDCHAR
STARTCHAR ch-54
ENCODING 54
SWIDTH 1000 0
DWIDTH 16 0
BBX 16 16 0 -2
BITMAP
0ff8
0010
0020
0040
0081
0082
7ebc
04a0
0890
1088
2084
4083
0280
0100
0000
0000
ENDCHAR
STARTCHAR ch-56
ENCODING 56
SWIDTH 1000 0
DWIDTH 16 0
BBX 16 16 0 -2
BITMAP
0100
0080
0f80
0084
008c
3ed0
02e0
02a0
0490
0888
1087
2082
0280
0100
0000
0000
ENDCHAR
STARTCHAR ch-59
ENCODING 59
SWIDTH 1000 0
DWIDTH 16 0
BBX 16 16 0 -2
BITMAP
4020
3020
1020
03ff
4021
3021
1221
0421
0821
7041
1081
1101
1612
100c
0000
0000
ENDCHAR
STARTCHAR ch-62
ENCODING 62
SWIDTH 1000 0
DWIDTH 16 0
BBX 16 16 0 -2
BITMAP
2000
13fe
0902
0102
4102
2102
1114
0108
0500
0900
1100
6102
2102
20ff
0000
0000
ENDCHAR
STARTCHAR ch-63
ENCODING 63
SWIDTH 1000 0
DWIDTH 16 0
BBX 16 16 0 -2
BITMAP
2040
1840
0840
4048
31fc
1048
0248
0448
0848
7048
1089
1109
1209
1007
0000
0000
ENDCHAR
STARTCHAR ch-64
ENCODING 64
SWIDTH 1000 0
DWIDTH 16 0
BBX 16 16 0 -2
BITMAP
2000
1802
0bff
4020
3020
1020
0420
0820
1020
7020
1020
1020
10a0
1040
0000
0000
ENDCHAR
STARTCHAR ch-65
ENCODING 65
SWIDTH 1000 0
DWIDTH 16 0
BBX 16 16 0 -2
BITMAP
2020
1820
0820
4020
3022
13ff
0420
0820
1020
7020
1020
1020
1020
1020
0000
0000
ENDCHAR
STARTCHAR ch-66
ENCODING 66
SWIDTH 1000 0
DWIDTH 16 0
BBX 16 16 0 -2
BITMAP
0090
0088
3ffe
1084
0c8c
04d0
00a0
0290
0488
0887
3082
0080
0280
0100
0000
0000
ENDCHAR
STARTCHAR ch-67
ENCODING 67
SWIDTH 1000 0
DWIDTH 16 0
BBX 16 16 0 -2
BITMAP
2000
1878
0808
0008
4088
3088
1088
0288
0488
0888
7104
1202
1401
1000
0000
0000
ENDCHAR
STARTCHAR ch-70
ENCODING 70
SWIDTH 1000 0
DWIDTH 16 0
BBX 16 16 0 -2
BITMAP
0080
0140
0220
0498
1887
6082
1ec8
02b0
0490
0888
1087
2082
0280
0100
0000
0000
ENDCHAR
STARTCHAR ch-74
ENCODING 74
SWIDTH 1000 0
DWIDTH 16 0
BBX 16 16 0 -2
BITMAP
2004
1bfe
0804
4144
2128
24a8
0488
0850
7020
1050
1050
1088
1107
1602
0000
0000
ENDCHAR
STARTCHAR ch-75
ENCODING 75
SWIDTH 1000 0
DWIDTH 16 0
BBX 16 16 0 -2
BITMAP
4100
3100
11ff
4201
3001
1081
0441
0821
1001
7001
1001
1022
1014
1008
0000
0000
ENDCHAR
STARTCHAR ch-76
ENCODING 76
SWIDTH 1000 0
DWIDTH 16 0
BBX 16 16 0 -2
BITMAP
4001
3101
1111
4111
3111
1111
0511
0911
1111
7111
1111
1201
1401
1001
0000
0000
ENDCHAR
STARTCHAR ch-77
ENCODING 77
SWIDTH 1000 0
DWIDTH 16 0
BBX 16 16 0 -2
BITMAP
4080
3080
1088
07fc
0088
4088
3088
10c8
00a8
08a8
1089
6109
2209
2c0f
0000
0000
ENDCHAR
STARTCHAR ch-78
ENCODING 78
SWIDTH 1000 0
DWIDTH 16 0
BBX 16 16 0 -2
BITMAP
21f8
1908
0908
0108
4108
3188
1148
0128
0508
0908
1109
6109
2209
2c0f
0000
0000
ENDCHAR
STARTCHAR ch-79
ENCODING 79
SWIDTH 1000 0
DWIDTH 16 0
BBX 16 16 0 -2
BITMAP
4020
3020
1020
0022
47ff
3020
1020
0420
0820
1050
7088
1104
1202
1401
0000
0000
ENDCHAR
STARTCHAR ch-80
ENCODING 80
SWIDTH 1000 0
DWIDTH 16 0
BBX 16 16 0 -2
BITMAP
0c40
0442
007f
4082
3082
1102
0584
0a64
1028
7010
1020
1040
1080
1100
0000
0000
ENDCHAR
STARTCHAR ch-82
ENCODING 82
SWIDTH 1000 0
DWIDTH 16 0
BBX 16 16 0 -2
BITMAP
4020
3020
1022
07ff
0100
4100
3100
1100
0500
0900
7100
1100
1100
11fe
0000
0000
ENDCHAR
STARTCHAR ch-84
ENCODING 84
SWIDTH 1000 0
DWIDTH 16 0
BBX 16 16 0 -2
BITMAP
2080
1882
08ff
4100
3200
10fe
0408
0810
7020
1040
1080
1101
1201
11ff
0000
0000
ENDCHAR
STARTCHAR ch-85
ENCODING 85
SWIDTH 1000 0
DWIDTH 16 0
BBX 16 16 0 -2
BITMAP
0020
2020
1820
0820
4222
3222
1222
0a22
1222
7222
1222
1222
13fe
1202
0000
0000
ENDCHAR
STARTCHAR ch-87
ENCODING 87
SWIDTH 1000 0
DWIDTH 16 0
BBX 16 16 0 -2
BITMAP
4004
33fe
1020
0020
4020
3020
1422
07ff
0820
7020
1020
1020
1020
1020
0000
0000
ENDCHAR
STARTCHAR ch-89
ENCODING 89
SWIDTH 1000 0
DWIDTH 16 0
BBX 16 16 0 -2
BITMAP
4004
33fe
1020
0020
4022
37ff
1020
0420
0820
7020
1020
1120
10a0
1040
0000
0000
ENDCHAR
STARTCHAR ch-91
ENCODING 91
SWIDTH 1000 0
DWIDTH 16 0
BBX 16 16 0 -2
BITMAP
23fc
1808
0888
4088
3088
1088
05f8
0888
1088
7089
1089
1109
1105
1203
0000
0000
ENDCHAR
STARTCHAR ch-92
ENCODING 92
SWIDTH 1000 0
DWIDTH 16 0
BBX 16 16 0 -2
BITMAP
2002
19ff
0902
4102
3102
1102
01fe
0502
0900
7100
1100
1101
1101
10ff
0000
0000
ENDCHAR
STARTCHAR ch-93
ENCODING 93
SWIDTH 1000 0
DWIDTH 16 0
BBX 16 16 0 -2
BITMAP
4040
3040
1040
0040
47ff
3084
1104
0208
0908
1090
6060
2090
210c
2604
0000
0000
ENDCHAR
STARTCHAR ch-94
ENCODING 94
SWIDTH 1000 0
DWIDTH 16 0
BBX 16 16 0 -2
BITMAP
1ffc
0080
0082
7fff
0084
008c
3ed0
02a0
0490
0888
1087
6082
0280
0100
0000
0000
ENDCHAR
STARTCHAR ch-95
ENCODING 95
SWIDTH 1000 0
DWIDTH 16 0
BBX 16 16 0 -2
BITMAP
2000
1804
0bfe
4020
3020
1420
0420
0820
7020
1020
1022
17ff
1000
1000
0000
0000
ENDCHAR
STARTCHAR ch-96
ENCODING 96
SWIDTH 1000 0
DWIDTH 16 0
BBX 16 16 0 -2
BITMAP
2020
1920
0924
413e
31e4
1724
0928
1120
7120
1120
1121
1101
10ff
1000
0000
0000
ENDCHAR
STARTCHAR ch-97
ENCODING 97
SWIDTH 1000 0
DWIDTH 16 0
BBX 16 16 0 -2
BITMAP
21fe
1800
0800
4002
37ff
1080
0480
0884
11fe
7004
1004
1044
1028
1010
0000
0000
ENDCHAR
STARTCHAR ch-101
ENCODING 101
SWIDTH 1000 0
DWIDTH 16 0
BBX 16 16 0 -2
BITMAP
4020
3020
13fe
0020
4020
33fe
1104
0488
0850
1020
7050
1088
1104
1603
0000
0000
ENDCHAR
STARTCHAR ch-102
ENCODING 102
SWIDTH 1000 0
DWIDTH 16 0
BBX 16 16 0 -2
BITMAP
4001
33fe
1210
0210
4210
33ff
1210
0210
0a10
7210
1250
1289
1305
1603
0000
0000
ENDCHAR
STARTCHAR ch-103
ENCODING 103
SWIDTH 1000 0
DWIDTH 16 0
BBX 16 16 0 -2
BITMAP
3002
11ff
0044
4044
3044
11ff
0444
0844
0844
7044
1084
1104
1204
1004
0000
0000
ENDCHAR
STARTCHAR ch-104
ENCODING 104
SWIDTH 1000 0
DWIDTH 16 0
BBX 16 16 0 -2
BITMAP
2004
19fe
0904
4104
2504
0904
09fc
1104
7104
1104
1104
1104
11fc
1104
0000
0000
ENDCHAR
STARTCHAR ch-105
ENCODING 105
SWIDTH 1000 0
DWIDTH 16 0
BBX 16 16 0 -2
BITMAP
3020
1040
0080
41fe
3102
1102
0502
09fe
0902
7102
1102
11fe
1102
1000
0000
0000
ENDCHAR
STARTCHAR ch-106
ENCODING 106
SWIDTH 1000 0
DWIDTH 16 0
BBX 16 16 0 -2
BITMAP
2004
1bfe
0820
4020
3020
1024
05fe
0820
1020
7020
1020
1022
17ff
1000
0000
0000
ENDCHAR
STARTCHAR ch-107
ENCODING 107
SWIDTH 1000 0
DWIDTH 16 0
BBX 16 16 0 -2
BITMAP
3048
1048
0048
41fe
3048
1048
0448
0bff
0848
7048
1088
1108
1208
1008
0000
0000
ENDCHAR
STARTCHAR ch-109
ENCODING 109
SWIDTH 1000 0
DWIDTH 16 0
BBX 16 16 0 -2
BITMAP
4020
3020
1020
07ff
4421
3421
1451
0489
1505
2401
6401
2401
2405
2402
0000
0000
ENDCHAR
STARTCHAR ch-111
ENCODING 111
SWIDTH 1000 0
DWIDTH 16 0
BBX 16 16 0 -2
BITMAP
3020
1022
07ff
4020
3020
1040
0488
0910
0a20
7040
1084
1102
13ff
1001
0000
0000
ENDCHAR
STARTCHAR ch-112
ENCODING 112
SWIDTH 1000 0
DWIDTH 16 0
BBX 16 16 0 -2
BITMAP
2020
1820
0822
43ff
3020
1020
0420
0850
7088
10c8
1124
1227
1402
1000
0000
0000
ENDCHAR
STARTCHAR ch-113
ENCODING 113
SWIDTH 1000 0
DWIDTH 16 0
BBX 16 16 0 -2
BITMAP
1820
0824
0022
4020
37ff
1020
0420
0820
0850
7088
1104
1202
1401
1401
0000
0000
ENDCHAR
STARTCHAR ch-114
ENCODING 114
SWIDTH 1000 0
DWIDTH 16 0
BBX 16 16 0 -2
BITMAP
2004
1bfe
0884
4088
3088
149e
04c2
08a4
3128
1110
1228
1244
1487
1102
0000
0000
ENDCHAR
STARTCHAR ch-115
ENCODING 115
SWIDTH 1000 0
DWIDTH 16 0
BBX 16 16 0 -2
BITMAP
4018
3060
1380
0200
43ff
3201
1282
0244
0a28
7210
2228
2444
2882
2301
0000
0000
ENDCHAR
STARTCHAR ch-116
ENCODING 116
SWIDTH 1000 0
DWIDTH 16 0
BBX 16 16 0 -2
BITMAP
2080
1860
0802
47ff
2040
2440
0850
0848
1046
7042
1040
1040
1040
1040
0000
0000
ENDCHAR
STARTCHAR ch-118
ENCODING 118
SWIDTH 1000 0
DWIDTH 16 0
BBX 16 16 0 -2
BITMAP
0040
2020
1822
0bff
4104
2504
0888
0888
1050
7020
1050
1088
1307
1c02
0000
0000
ENDCHAR
STARTCHAR ch-120
ENCODING 120
SWIDTH 1000 0
DWIDTH 16 0
BBX 16 16 0 -2
BITMAP
3020
1022
07ff
4080
3080
10fe
0482
0882
0882
7082
1102
1222
1414
1008
0000
0000
ENDCHAR
STARTCHAR ch-122
ENCODING 122
SWIDTH 1000 0
DWIDTH 16 0
BBX 16 16 0 -2
BITMAP
2040
1840
0844
43fe
3044
1044
0044
07ff
0440
08a0
7090
1108
1207
1402
0000
0000
ENDCHAR
STARTCHAR ch-123
ENCODING 123
SWIDTH 1000 0
DWIDTH 16 0
BBX 16 16 0 -2
BITMAP
4100
3104
13fe
0420
4020
3022
17ff
0020
0420
0820
1020
7020
1020
1020
0000
0000
ENDCHAR
STARTCHAR ch-125
ENCODING 125
SWIDTH 1000 0
DWIDTH 16 0
BBX 16 16 0 -2
BITMAP
0100
2104
19fe
0a00
43fc
3400
13f8
0008
1008
7008
1008
1005
1005
1003
0000
0000
ENDCHAR
STARTCHAR ch-126
ENCODING 126
SWIDTH 1000 0
DWIDTH 16 0
BBX 16 16 0 -2
BITMAP
2090
1890
0888
4108
3207
1402
03f8
0888
1088
7088
1088
1108
1250
1420
0000
0000
ENDCHAR
STARTCHAR ch-128
ENCODING 128
SWIDTH 1000 0
DWIDTH 16 0
BBX 16 16 0 -2
BITMAP
0800
087e
0902
0a02
7c14
1a08
2a7f
4909
0909
0888
0808
0808
2828
1010
0000
0000
ENDCHAR
STARTCHAR ch-129
ENCODING 129
SWIDTH 1000 0
DWIDTH 16 0
BBX 16 16 0 -2
BITMAP
1000
0c40
4030
3090
1090
0080
0a84
0a82
1283
7481
1484
1084
107c
1000
0000
0000
ENDCHAR
STARTCHAR ch-130
ENCODING 130
SWIDTH 1000 0
DWIDTH 16 0
BBX 16 16 0 -2
BITMAP
201e
19e0
0900
4100
3102
15ff
0508
0908
0908
7108
1108
1208
1408
1008
0000
0000
ENDCHAR
STARTCHAR ch-131
ENCODING 131
SWIDTH 1000 0
DWIDTH 16 0
BBX 16 16 0 -2
BITMAP
201e
1be0
0820
4020
3022
17ff
0420
0820
1020
7050
1088
1104
1207
1402
0000
0000
ENDCHAR
STARTCHAR ch-132
ENCODING 132
SWIDTH 1000 0
DWIDTH 16 0
BBX 16 16 0 -2
BITMAP
3000
11fe
0000
4000
3000
13ff
0410
0820
0840
7080
1102
13ff
1001
1000
0000
0000
ENDCHAR
STARTCHAR ch-133
ENCODING 133
SWIDTH 1000 0
DWIDTH 16 0
BBX 16 16 0 -2
BITMAP
4004
33fe
1000
0000
4002
37ff
1090
0090
0490
0890
7111
1211
1411
180f
0000
0000
ENDCHAR
STARTCHAR ch-134
ENCODING 134
SWIDTH 1000 0
DWIDTH 16 0
BBX 16 16 0 -2
BITMAP
2020
1822
0bff
4000
2408
24fc
0888
0888
1088
7088
1109
1109
1209
1407
0000
0000
ENDCHAR
STARTCHAR ch-135
ENCODING 135
SWIDTH 1000 0
DWIDTH 16 0
BBX 16 16 0 -2
BITMAP
4020
3040
1080
0104
4202
37ff
1091
0490
0890
1090
7110
1211
1411
101f
0000
0000
ENDCHAR
STARTCHAR ch-136
ENCODING 136
SWIDTH 1000 0
DWIDTH 16 0
BBX 16 16 0 -2
BITMAP
2040
1844
0bfe
4244
3448
1060
04a0
08a0
10a0
70a0
1121
1221
141f
1800
0000
0000
ENDCHAR
STARTCHAR ch-137
ENCODING 137
SWIDTH 1000 0
DWIDTH 16 0
BBX 16 16 0 -2
BITMAP
2002
1bff
0a02
4204
2000
1090
0890
1090
7090
1090
1111
1111
1211
140f
0000
0000
ENDCHAR
STARTCHAR ch-138
ENCODING 138
SWIDTH 1000 0
DWIDTH 16 0
BBX 16 16 0 -2
BITMAP
1010
1010
7e12
5214
52f8
5018
1434
1452
1491
1510
2450
4421
0401
03ff
0000
0000
ENDCHAR
STARTCHAR ch-139
ENCODING 139
SWIDTH 1000 0
DWIDTH 16 0
BBX 16 16 0 -2
BITMAP
3044
1042
0040
43ff
3040
1050
0450
0850
0850
7090
1111
1211
141f
1000
0000
0000
ENDCHAR
STARTCHAR ch-140
ENCODING 140
SWIDTH 1000 0
DWIDTH 16 0
BBX 16 16 0 -2
BITMAP
2020
1022
17ff
4020
2222
2622
0a22
13fe
7022
1020
1020
1021
1021
101f
0000
0000
ENDCHAR
STARTCHAR ch-141
ENCODING 141
SWIDTH 1000 0
DWIDTH 16 0
BBX 16 16 0 -2
BITMAP
4002
37ff
1080
0080
40fe
3084
1084
0484
0884
11fc
6004
2008
2008
27ff
0000
0000
ENDCHAR
STARTCHAR ch-142
ENCODING 142
SWIDTH 1000 0
DWIDTH 16 0
BBX 16 16 0 -2
BITMAP
4080
30a0
1120
0220
0420
4220
323e
1220
0220
0a20
7220
1221
1221
123f
0000
0000
ENDCHAR
STARTCHAR ch-143
ENCODING 143
SWIDTH 1000 0
DWIDTH 16 0
BBX 16 16 0 -2
BITMAP
2200
1202
127f
4212
2fd2
2212
0a12
1212
7292
1322
1222
1042
108a
1104
0000
0000
ENDCHAR
STARTCHAR ch-144
ENCODING 144
SWIDTH 1000 0
DWIDTH 16 0
BBX 16 16 0 -2
BITMAP
2020
1820
0822
43ff
2420
2470
08a8
08a8
1124
7124
1222
1423
1020
1020
0000
0000
ENDCHAR
STARTCHAR ch-146
ENCODING 146
SWIDTH 1000 0
DWIDTH 16 0
BBX 16 16 0 -2
BITMAP
40fe
3084
1084
0104
4208
31fc
1104
0088
0488
0850
7020
1050
118f
1604
0000
0000
ENDCHAR
STARTCHAR ch-147
ENCODING 147
SWIDTH 1000 0
DWIDTH 16 0
BBX 16 16 0 -2
BITMAP
0080
0084
3e8c
02d0
04a0
0898
1287
6102
0ff8
0808
0ff8
0808
0ff8
0808
0000
0000
ENDCHAR
STARTCHAR ch-148
ENCODING 148
SWIDTH 1000 0
DWIDTH 16 0
BBX 16 16 0 -2
BITMAP
27ff
1820
0820
4122
253f
2522
0922
0922
11fe
7002
1002
1002
1014
1008
0000
0000
ENDCHAR
STARTCHAR ch-149
ENCODING 149
SWIDTH 1000 0
DWIDTH 16 0
BBX 16 16 0 -2
BITMAP
4100
3100
11ff
0251
4451
3051
1051
0451
0891
1111
7221
1441
108a
1004
0000
0000
ENDCHAR
STARTCHAR ch-150
ENCODING 150
SWIDTH 1000 0
DWIDTH 16 0
BBX 16 16 0 -2
BITMAP
0020
2020
1020
1022
03ff
4222
3222
1222
03fe
0a22
1020
7020
1020
1020
0000
0000
ENDCHAR
STARTCHAR ch-152
ENCODING 152
SWIDTH 1000 0
DWIDTH 16 0
BBX 16 16 0 -2
BITMAP
4210
3210
1210
0210
4210
33df
1210
0210
0a10
1210
6210
2211
22d1
271f
0000
0000
ENDCHAR
STARTCHAR ch-153
ENCODING 153
SWIDTH 1000 0
DWIDTH 16 0
BBX 16 16 0 -2
BITMAP
0020
1020
0c20
40a8
30a4
1123
0521
0a24
1064
7028
1010
1060
1180
1600
0000
0000
ENDCHAR
STARTCHAR ch-154
ENCODING 154
SWIDTH 1000 0
DWIDTH 16 0
BBX 16 16 0 -2
BITMAP
3010
1010
0010
4010
3010
1110
051f
0910
0910
7110
1110
1110
1110
17ff
0000
0000
ENDCHAR
STARTCHAR ch-155
ENCODING 155
SWIDTH 1000 0
DWIDTH 16 0
BBX 16 16 0 -2
BITMAP
0020
2020
17ff
4020
3020
13fe
0622
0a22
1222
7222
122a
1224
1020
1020
0000
0000
ENDCHAR
STARTCHAR ch-156
ENCODING 156
SWIDTH 1000 0
DWIDTH 16 0
BBX 16 16 0 -2
BITMAP
4108
3108
1108
0108
41f8
3100
1100
05fc
0908
7108
1108
1208
1408
1008
0000
0000
ENDCHAR
STARTCHAR ch-157
ENCODING 157
SWIDTH 1000 0
DWIDTH 16 0
BBX 16 16 0 -2
BITMAP
0810
0810
0912
0a14
7cf8
0c18
1a34
2952
4891
0810
0810
0810
2850
1020
0000
0000
ENDCHAR
STARTCHAR ch-171
ENCODING 171
SWIDTH 1000 0
DWIDTH 16 0
BBX 16 16 0 -2
BITMAP
2020
1822
0fff
4020
3024
13fe
0420
0870
1068
70a4
1127
1222
1020
1020
0000
0000
ENDCHAR
STARTCHAR ch-172
ENCODING 172
SWIDTH 1000 0
DWIDTH 16 0
BBX 16 16 0 -2
BITMAP
2020
1024
0bfe
4020
2022
17ff
0020
0470
08a8
1124
6623
2020
2020
2020
0000
0000
ENDCHAR
STARTCHAR ch-173
ENCODING 173
SWIDTH 1000 0
DWIDTH 16 0
BBX 16 16 0 -2
BITMAP
4022
3021
17ff
0020
4020
3124
1124
0124
0924
1224
6427
2020
2020
2020
0000
0000
ENDCHAR
STARTCHAR ch-174
ENCODING 174
SWIDTH 1000 0
DWIDTH 16 0
BBX 16 16 0 -2
BITMAP
2008
19fc
0908
0108
4108
31f8
1108
0508
0908
11f8
6108
2108
2108
2fff
0000
0000
ENDCHAR
STARTCHAR ch-176
ENCODING 176
SWIDTH 1000 0
DWIDTH 16 0
BBX 16 16 0 -2
BITMAP
4000
37ff
1040
0040
4080
3100
1200
05fe
0902
1102
6102
2102
21fe
2102
0000
0000
ENDCHAR
STARTCHAR ch-177
ENCODING 177
SWIDTH 1000 0
DWIDTH 16 0
BBX 16 16 0 -2
BITMAP
2020
1822
0bff
4204
2408
2100
0910
0930
1140
7180
1101
1101
1101
10ff
0000
0000
ENDCHAR
STARTCHAR ch-179
ENCODING 179
SWIDTH 1000 0
DWIDTH 16 0
BBX 16 16 0 -2
BITMAP
2002
1bff
0802
4002
31f2
1112
0512
0512
0912
49f2
3112
1002
100a
1004
0000
0000
ENDCHAR
STARTCHAR ch-180
ENCODING 180
SWIDTH 1000 0
DWIDTH 16 0
BBX 16 16 0 -2
BITMAP
1830
0848
0084
4112
3221
1048
0410
0822
0844
7008
1010
1020
1040
1180
0000
0000
ENDCHAR
STARTCHAR ch-182
ENCODING 182
SWIDTH 1000 0
DWIDTH 16 0
BBX 16 16 0 -2
BITMAP
3000
13fe
0000
4000
37ff
1020
0020
08a8
1124
6222
2421
2020
20a0
2040
0000
0000
ENDCHAR
STARTCHAR ch-183
ENCODING 183
SWIDTH 1000 0
DWIDTH 16 0
BBX 16 16 0 -2
BITMAP
3022
1021
07ff
4020
3040
1084
0104
0a44
1028
6010
2028
2044
2082
2301
0000
0000
ENDCHAR
STARTCHAR ch-184
ENCODING 184
SWIDTH 1000 0
DWIDTH 16 0
BBX 16 16 0 -2
BITMAP
0090
2092
17ff
1092
47fe
2492
0490
0fff
1491
7091
1095
1112
1210
1410
0000
0000
ENDCHAR
STARTCHAR ch-185
ENCODING 185
SWIDTH 1000 0
DWIDTH 16 0
BBX 16 16 0 -2
BITMAP
2020
1820
0822
43ff
3222
1222
0622
0a22
13fe
7222
1222
1222
13fe
1202
0000
0000
ENDCHAR
STARTCHAR ch-186
ENCODING 186
SWIDTH 1000 0
DWIDTH 16 0
BBX 16 16 0 -2
BITMAP
1800
09ff
0111
4111
3111
1111
05ff
0911
0911
7111
1111
11ff
1101
1000
0000
0000
ENDCHAR
STARTCHAR ch-187
ENCODING 187
SWIDTH 1000 0
DWIDTH 16 0
BBX 16 16 0 -2
BITMAP
2040
1880
0884
4102
33ff
1001
0400
09fe
1102
7102
1102
1102
11fe
1102
0000
0000
ENDCHAR
STARTCHAR ch-188
ENCODING 188
SWIDTH 1000 0
DWIDTH 16 0
BBX 16 16 0 -2
BITMAP
2002
19ff
0842
4042
3042
1092
048c
0900
12fe
7082
1082
1082
10fe
1082
0000
0000
ENDCHAR
STARTCHAR ch-189
ENCODING 189
SWIDTH 1000 0
DWIDTH 16 0
BBX 16 16 0 -2
BITMAP
2020
1820
0822
43ff
3020
1020
0424
09fe
1104
7104
1104
1104
11fc
1104
0000
0000
ENDCHAR
STARTCHAR ch-190
ENCODING 190
SWIDTH 1000 0
DWIDTH 16 0
BBX 16 16 0 -2
BITMAP
2040
1844
087e
4040
3040
1040
0444
0bfe
0a04
3204
1204
1204
13fc
1204
0000
0000
ENDCHAR
STARTCHAR ch-191
ENCODING 191
SWIDTH 1000 0
DWIDTH 16 0
BBX 16 16 0 -2
BITMAP
0008
2088
1888
0888
3088
1088
0507
0a00
11fc
7104
1104
1104
11fc
1104
0000
0000
ENDCHAR
STARTCHAR ch-192
ENCODING 192
SWIDTH 1000 0
DWIDTH 16 0
BBX 16 16 0 -2
BITMAP
43ff
3001
1001
01f9
4001
31f9
1109
0109
09f9
1109
6001
2002
2024
2018
0000
0000
ENDCHAR
STARTCHAR ch-193
ENCODING 193
SWIDTH 1000 0
DWIDTH 16 0
BBX 16 16 0 -2
BITMAP
43fe
3202
1202
0202
4202
33fe
1252
0050
0450
0850
1090
6111
2211
241f
0000
0000
ENDCHAR
STARTCHAR ch-194
ENCODING 194
SWIDTH 1000 0
DWIDTH 16 0
BBX 16 16 0 -2
BITMAP
19ff
0901
0101
417d
3145
1145
0545
097d
0945
7101
1101
1101
1105
1102
0000
0000
ENDCHAR
STARTCHAR ch-195
ENCODING 195
SWIDTH 1000 0
DWIDTH 16 0
BBX 16 16 0 -2
BITMAP
4080
3080
10ff
0101
4201
31f9
1109
0109
09f9
1109
6001
2001
2012
200c
0000
0000
ENDCHAR
STARTCHAR ch-196
ENCODING 196
SWIDTH 1000 0
DWIDTH 16 0
BBX 16 16 0 -2
BITMAP
2124
1924
0924
4124
3124
17ff
0924
1124
7124
113c
1120
1100
1100
10ff
0000
0000
ENDCHAR
STARTCHAR ch-197
ENCODING 197
SWIDTH 1000 0
DWIDTH 16 0
BBX 16 16 0 -2
BITMAP
2002
1bff
0a02
4222
2222
2a22
0a22
0a32
124a
7286
1306
1202
13fe
1202
0000
0000
ENDCHAR
STARTCHAR ch-198
ENCODING 198
SWIDTH 1000 0
DWIDTH 16 0
BBX 16 16 0 -2
BITMAP
4020
3120
11fe
0220
4420
3020
17ff
0020
0850
1088
6104
2202
2401
2401
0000
0000
ENDCHAR
STARTCHAR ch-199
ENCODING 199
SWIDTH 1000 0
DWIDTH 16 0
BBX 16 16 0 -2
BITMAP
4100
3100
1100
07ef
4129
3129
1129
0129
0929
1129
6229
242f
2049
2180
0000
0000
ENDCHAR
STARTCHAR ch-201
ENCODING 201
SWIDTH 1000 0
DWIDTH 16 0
BBX 16 16 0 -2
BITMAP
0100
0208
0ffc
0808
0ff8
0808
0ff8
0082
3ec6
02a8
0490
188c
6283
0100
0000
0000
ENDCHAR
STARTCHAR ch-202
ENCODING 202
SWIDTH 1000 0
DWIDTH 16 0
BBX 16 16 0 -2
BITMAP
2040
1880
0900
43fe
3502
1102
0102
0102
09fe
1102
7102
1102
1102
11fe
0000
0000
ENDCHAR
STARTCHAR ch-204
ENCODING 204
SWIDTH 1000 0
DWIDTH 16 0
BBX 16 16 0 -2
BITMAP
1840
0830
0016
4084
3088
1088
0a94
12a2
72c3
1481
1184
1284
147c
1000
0000
0000
ENDCHAR
STARTCHAR ch-205
ENCODING 205
SWIDTH 1000 0
DWIDTH 16 0
BBX 16 16 0 -2
BITMAP
4020
3020
13fe
0020
4070
30a8
1124
0222
0c21
1020
63fe
2020
2020
2020
0000
0000
ENDCHAR
STARTCHAR ch-207
ENCODING 207
SWIDTH 1000 0
DWIDTH 16 0
BBX 16 16 0 -2
BITMAP
4020
3020
1421
0421
4421
37ff
1020
0020
0c21
1421
6421
2421
27ff
2401
0000
0000
ENDCHAR
STARTCHAR ch-208
ENCODING 208
SWIDTH 1000 0
DWIDTH 16 0
BBX 16 16 0 -2
BITMAP
2790
1c90
0d10
4512
267f
2512
0c92
1492
7692
1522
1422
1442
1494
1508
0000
0000
ENDCHAR
STARTCHAR ch-209
ENCODING 209
SWIDTH 1000 0
DWIDTH 16 0
BBX 16 16 0 -2
BITMAP
4088
3088
113f
0249
47c9
3049
1089
0109
0a49
17c9
6051
2021
2042
200c
0000
0000
ENDCHAR
STARTCHAR ch-210
ENCODING 210
SWIDTH 1000 0
DWIDTH 16 0
BBX 16 16 0 -2
BITMAP
4008
37f0
1200
0240
4248
3248
1248
0248
0a48
1244
6492
29f9
3109
2000
0000
0000
ENDCHAR
STARTCHAR ch-211
ENCODING 211
SWIDTH 1000 0
DWIDTH 16 0
BBX 16 16 0 -2
BITMAP
43c0
3044
1044
0044
43c4
3204
1204
03c8
0048
0849
1051
607f
2281
2101
0000
0000
ENDCHAR
STARTCHAR ch-212
ENCODING 212
SWIDTH 1000 0
DWIDTH 16 0
BBX 16 16 0 -2
BITMAP
0108
2108
1108
4fff
2108
2508
0908
11f8
7108
1108
1108
1108
11f8
1108
0000
0000
ENDCHAR
STARTCHAR ch-213
ENCODING 213
SWIDTH 1000 0
DWIDTH 16 0
BBX 16 16 0 -2
BITMAP
2020
1820
0824
43fe
3020
1420
0422
0bff
3040
1088
1104
17fe
1202
1002
0000
0000
ENDCHAR
STARTCHAR ch-214
ENCODING 214
SWIDTH 1000 0
DWIDTH 16 0
BBX 16 16 0 -2
BITMAP
0040
2082
1b1f
0a52
4252
2252
2652
0bd2
125a
7054
1090
1110
1210
1410
0000
0000
ENDCHAR
STARTCHAR ch-215
ENCODING 215
SWIDTH 1000 0
DWIDTH 16 0
BBX 16 16 0 -2
BITMAP
2000
1802
0fff
4492
2492
3492
0492
0c92
150e
6602
2402
2402
27fe
2402
0000
0000
ENDCHAR
STARTCHAR ch-217
ENCODING 217
SWIDTH 1000 0
DWIDTH 16 0
BBX 16 16 0 -2
BITMAP
43fe
3020
1222
0124
40a8
3020
17ff
0020
0820
1020
6020
2020
2020
2020
0000
0000
ENDCHAR
STARTCHAR ch-218
ENCODING 218
SWIDTH 1000 0
DWIDTH 16 0
BBX 16 16 0 -2
BITMAP
4110
3110
1110
0110
41df
3510
1510
0510
1510
2510
6511
2511
2511
2fdf
0000
0000
ENDCHAR
STARTCHAR ch-219
ENCODING 219
SWIDTH 1000 0
DWIDTH 16 0
BBX 16 16 0 -2
BITMAP
203c
1bc0
0840
4020
2024
27fe
0804
0808
1010
7020
1340
1480
107f
1000
0000
0000
ENDCHAR
STARTCHAR ch-220
ENCODING 220
SWIDTH 1000 0
DWIDTH 16 0
BBX 16 16 0 -2
BITMAP
4004
33f8
1210
0210
4212
33ff
1210
0610
0a10
7210
1209
1245
1283
1179
0000
0000
ENDCHAR
STARTCHAR ch-221
ENCODING 221
SWIDTH 1000 0
DWIDTH 16 0
BBX 16 16 0 -2
BITMAP
4002
33fc
1100
0100
41ff
3110
1110
0118
0914
1112
6211
2410
2010
2010
0000
0000
ENDCHAR
STARTCHAR ch-222
ENCODING 222
SWIDTH 1000 0
DWIDTH 16 0
BBX 16 16 0 -2
BITMAP
4020
3020
17ff
0401
4401
3000
13fe
0020
0820
1020
6020
2120
20a0
2040
0000
0000
ENDCHAR
STARTCHAR ch-224
ENCODING 224
SWIDTH 1000 0
DWIDTH 16 0
BBX 16 16 0 -2
BITMAP
2020
1850
0888
4088
2574
2603
0bfc
1004
7008
1090
1060
1020
1018
1008
0000
0000
ENDCHAR
STARTCHAR ch-225
ENCODING 225
SWIDTH 1000 0
DWIDTH 16 0
BBX 16 16 0 -2
BITMAP
0080
2082
18ff
0902
4102
33f2
1512
0512
09f2
7102
110c
1101
1101
10ff
0000
0000
ENDCHAR
STARTCHAR ch-226
ENCODING 226
SWIDTH 1000 0
DWIDTH 16 0
BBX 16 16 0 -2
BITMAP
2020
1822
0bff
0222
6224
13fc
0a84
0a88
3248
1250
1420
1458
1887
1302
0000
0000
ENDCHAR
STARTCHAR ch-227
ENCODING 227
SWIDTH 1000 0
DWIDTH 16 0
BBX 16 16 0 -2
BITMAP
0040
2020
1824
0bfe
0000
4104
2504
0908
1088
7088
1090
1022
17ff
1000
0000
0000
ENDCHAR
STARTCHAR ch-229
ENCODING 229
SWIDTH 1000 0
DWIDTH 16 0
BBX 16 16 0 -2
BITMAP
2004
1bfe
0a04
4204
33fc
1280
0680
0a84
12fe
7280
1281
1481
1481
087f
0000
0000
ENDCHAR
STARTCHAR ch-231
ENCODING 231
SWIDTH 1000 0
DWIDTH 16 0
BBX 16 16 0 -2
BITMAP
4014
3012
1010
03ff
4210
3210
1210
0211
0a12
1214
6248
2295
2303
2201
0000
0000
ENDCHAR
STARTCHAR ch-232
ENCODING 232
SWIDTH 1000 0
DWIDTH 16 0
BBX 16 16 0 -2
BITMAP
4040
3020
1022
03ff
4020
3020
1024
03fe
0820
1020
6020
2022
27ff
2000
0000
0000
ENDCHAR
STARTCHAR ch-233
ENCODING 233
SWIDTH 1000 0
DWIDTH 16 0
BBX 16 16 0 -2
BITMAP
4120
3120
1120
03fe
4420
3020
1020
03fe
0820
1020
6020
2020
27ff
2000
0000
0000
ENDCHAR
STARTCHAR ch-235
ENCODING 235
SWIDTH 1000 0
DWIDTH 16 0
BBX 16 16 0 -2
BITMAP
2020
1822
0bff
4040
2040
2484
090c
0bf0
1020
7040
1080
1204
13fe
1002
0000
0000
ENDCHAR
STARTCHAR ch-236
ENCODING 236
SWIDTH 1000 0
DWIDTH 16 0
BBX 16 16 0 -2
BITMAP
3040
1020
0010
41ff
3101
1101
0400
0800
0828
7044
1082
1101
1201
1000
0000
0000
ENDCHAR
STARTCHAR ch-237
ENCODING 237
SWIDTH 1000 0
DWIDTH 16 0
BBX 16 16 0 -2
BITMAP
4084
3084
1104
0204
457f
3104
1104
0144
0924
1114
6104
2104
2114
2108
0000
0000
ENDCHAR
STARTCHAR ch-238
ENCODING 238
SWIDTH 1000 0
DWIDTH 16 0
BBX 16 16 0 -2
BITMAP
0020
2222
19a6
08a8
4020
23fe
2420
0822
17ff
7020
1020
1020
1020
1020
0000
0000
ENDCHAR
STARTCHAR ch-239
ENCODING 239
SWIDTH 1000 0
DWIDTH 16 0
BBX 16 16 0 -2
BITMAP
43fe
3202
1202
03fe
4210
3212
13ff
0610
0a10
1210
6208
2209
2285
2103
0000
0000
ENDCHAR
STARTCHAR ch-240
ENCODING 240
SWIDTH 1000 0
DWIDTH 16 0
BBX 16 16 0 -2
BITMAP
0080
3ffe
0080
1ffc
0100
7fff
0490
1c98
62a7
01c2
06b0
0888
3286
0100
0000
0000
ENDCHAR
STARTCHAR ch-241
ENCODING 241
SWIDTH 1000 0
DWIDTH 16 0
BBX 16 16 0 -2
BITMAP
4020
3020
1024
01fe
4124
3124
1124
0124
0fff
1020
6050
2088
2107
2602
0000
0000
ENDCHAR
STARTCHAR ch-242
ENCODING 242
SWIDTH 1000 0
DWIDTH 16 0
BBX 16 16 0 -2
BITMAP
4020
3021
1022
03fc
4220
3220
13ff
0021
0861
10a1
612a
2624
2020
2020
0000
0000
ENDCHAR
STARTCHAR ch-243
ENCODING 243
SWIDTH 1000 0
DWIDTH 16 0
BBX 16 16 0 -2
BITMAP
2060
1800
09e0
4022
3026
13e8
0470
08a8
0924
3127
1222
1420
10a0
1040
0000
0000
ENDCHAR
STARTCHAR ch-245
ENCODING 245
SWIDTH 1000 0
DWIDTH 16 0
BBX 16 16 0 -2
BITMAP
7fff
0200
0ffc
1408
6408
07f8
0484
008c
3ed0
02a0
0490
088f
7082
0180
0000
0000
ENDCHAR
STARTCHAR ch-249
ENCODING 249
SWIDTH 1000 0
DWIDTH 16 0
BBX 16 16 0 -2
BITMAP
4000
33fe
1202
0202
4202
33fe
1202
0202
0bfe
1202
6000
2000
27ff
2000
0000
0000
ENDCHAR
STARTCHAR ch-256
ENCODING 256
SWIDTH 1000 0
DWIDTH 16 0
BBX 16 16 0 -2
BITMAP
4080
3080
11fc
0304
4544
3124
1104
07ff
0904
7144
1124
1104
1104
120c
0000
0000
ENDCHAR
STARTCHAR ch-257
ENCODING 257
SWIDTH 1000 0
DWIDTH 16 0
BBX 16 16 0 -2
BITMAP
2020
1822
0bff
0020
4020
33fe
1000
0400
09fc
7104
1104
1104
11fc
1104
0000
0000
ENDCHAR
STARTCHAR ch-259
ENCODING 259
SWIDTH 1000 0
DWIDTH 16 0
BBX 16 16 0 -2
BITMAP
4040
3040
17ff
0100
4220
3524
1124
04a8
0820
1050
7088
1104
1202
1401
0000
0000
ENDCHAR
STARTCHAR ch-260
ENCODING 260
SWIDTH 1000 0
DWIDTH 16 0
BBX 16 16 0 -2
BITMAP
0002
27ff
1402
0c02
44f2
2492
2492
0c92
1492
74f2
1492
1402
17fe
1402
0000
0000
ENDCHAR
STARTCHAR ch-263
ENCODING 263
SWIDTH 1000 0
DWIDTH 16 0
BBX 16 16 0 -2
BITMAP
4002
33ff
1222
4222
33fe
1222
0222
0a22
7252
128a
1306
1202
13fe
1202
0000
0000
ENDCHAR
STARTCHAR ch-264
ENCODING 264
SWIDTH 1000 0
DWIDTH 16 0
BBX 16 16 0 -2
BITMAP
4100
31fc
1208
0010
41ff
3100
1100
057e
0942
1142
7144
1141
1241
147f
0000
0000
ENDCHAR
STARTCHAR ch-265
ENCODING 265
SWIDTH 1000 0
DWIDTH 16 0
BBX 16 16 0 -2
BITMAP
4001
33fe
1200
0200
43ff
3200
1200
02fe
1282
2282
6282
2482
28fe
2082
0000
0000
ENDCHAR
STARTCHAR ch-266
ENCODING 266
SWIDTH 1000 0
DWIDTH 16 0
BBX 16 16 0 -2
BITMAP
4040
3040
17ff
0040
40be
3102
1304
0508
117f
2108
6108
2108
2108
2118
0000
0000
ENDCHAR
STARTCHAR ch-267
ENCODING 267
SWIDTH 1000 0
DWIDTH 16 0
BBX 16 16 0 -2
BITMAP
0104
2088
1850
0bfe
4020
3020
11fc
0820
1022
77ff
1020
1020
1020
1020
0000
0000
ENDCHAR
STARTCHAR ch-268
ENCODING 268
SWIDTH 1000 0
DWIDTH 16 0
BBX 16 16 0 -2
BITMAP
2021
1bf1
0901
4105
21e5
2525
0a25
0b25
14c5
7045
1081
1081
1105
1202
0000
0000
ENDCHAR
STARTCHAR ch-269
ENCODING 269
SWIDTH 1000 0
DWIDTH 16 0
BBX 16 16 0 -2
BITMAP
47ff
3410
1410
0410
44fe
3482
1482
0482
04fe
1410
6410
2410
27ff
2400
0000
0000
ENDCHAR
STARTCHAR ch-270
ENCODING 270
SWIDTH 1000 0
DWIDTH 16 0
BBX 16 16 0 -2
BITMAP
4010
3022
10ff
4082
2082
34fe
0482
0882
08fe
3082
1082
1082
10fe
1082
0000
0000
ENDCHAR
STARTCHAR ch-271
ENCODING 271
SWIDTH 1000 0
DWIDTH 16 0
BBX 16 16 0 -2
BITMAP
4000
33ff
1020
0040
43ff
3249
1249
0649
0a49
1249
7249
1249
1249
1202
0000
0000
ENDCHAR
STARTCHAR ch-272
ENCODING 272
SWIDTH 1000 0
DWIDTH 16 0
BBX 16 16 0 -2
BITMAP
4100
313f
1200
0480
4080
313f
1304
0504
0904
1104
7104
1104
1114
1108
0000
0000
ENDCHAR
STARTCHAR ch-273
ENCODING 273
SWIDTH 1000 0
DWIDTH 16 0
BBX 16 16 0 -2
BITMAP
4080
3088
110a
0309
4508
317f
1108
0508
0908
1108
6108
2114
2122
2141
0000
0000
ENDCHAR
STARTCHAR ch-274
ENCODING 274
SWIDTH 1000 0
DWIDTH 16 0
BBX 16 16 0 -2
BITMAP
4002
37ff
1050
0050
43fe
3252
2652
0a52
1252
728e
1302
1202
13fe
1202
0000
0000
ENDCHAR
STARTCHAR ch-278
ENCODING 278
SWIDTH 1000 0
DWIDTH 16 0
BBX 16 16 0 -2
BITMAP
41fc
3104
1104
05fc
4400
37fe
1022
0022
17ff
2050
6088
2104
2202
2401
0000
0000
ENDCHAR
STARTCHAR ch-279
ENCODING 279
SWIDTH 1000 0
DWIDTH 16 0
BBX 16 16 0 -2
BITMAP
2120
1924
09fe
4120
3220
1022
07ff
0850
1050
7050
1090
1111
1211
140f
0000
0000
ENDCHAR
STARTCHAR ch-280
ENCODING 280
SWIDTH 1000 0
DWIDTH 16 0
BBX 16 16 0 -2
BITMAP
4040
3042
13fc
0050
47ff
3040
10c0
057e
0a40
107f
7001
1001
1022
101c
0000
0000
ENDCHAR
STARTCHAR ch-281
ENCODING 281
SWIDTH 1000 0
DWIDTH 16 0
BBX 16 16 0 -2
BITMAP
0020
1924
09fe
4220
2420
2422
0bff
0870
10a8
70a8
1124
1227
1422
1020
0000
0000
ENDCHAR
STARTCHAR ch-282
ENCODING 282
SWIDTH 1000 0
DWIDTH 16 0
BBX 16 16 0 -2
BITMAP
2080
18fc
0988
4250
2020
24d8
0b27
0820
11fc
7120
1122
13ff
1020
1020
0000
0000
ENDCHAR
STARTCHAR ch-283
ENCODING 283
SWIDTH 1000 0
DWIDTH 16 0
BBX 16 16 0 -2
BITMAP
2080
18fe
0904
4288
3050
1020
0458
0887
1102
76fc
1084
1084
10fc
1084
0000
0000
ENDCHAR
STARTCHAR ch-285
ENCODING 285
SWIDTH 1000 0
DWIDTH 16 0
BBX 16 16 0 -2
BITMAP
4020
37ff
1401
0080
4088
37ff
1088
0488
0888
7050
1020
1050
1088
1707
0000
0000
ENDCHAR
STARTCHAR ch-286
ENCODING 286
SWIDTH 1000 0
DWIDTH 16 0
BBX 16 16 0 -2
BITMAP
21ff
1902
0902
417a
2102
257a
094a
094a
114a
717a
114a
1102
110a
1104
0000
0000
ENDCHAR
STARTCHAR ch-287
ENCODING 287
SWIDTH 1000 0
DWIDTH 16 0
BBX 16 16 0 -2
BITMAP
4020
37ff
1020
03fe
4022
37fe
1420
07ff
0821
1021
7052
1088
1104
1603
0000
0000
ENDCHAR
STARTCHAR ch-288
ENCODING 288
SWIDTH 1000 0
DWIDTH 16 0
BBX 16 16 0 -2
BITMAP
4040
3084
1102
03ff
4021
3120
11fe
0220
0820
17ff
7020
1020
1020
1020
0000
0000
ENDCHAR
STARTCHAR ch-290
ENCODING 290
SWIDTH 1000 0
DWIDTH 16 0
BBX 16 16 0 -2
BITMAP
4100
317f
1211
0611
42ff
3211
1211
027f
0a10
1210
7210
1220
1240
1280
0000
0000
ENDCHAR
STARTCHAR ch-293
ENCODING 293
SWIDTH 1000 0
DWIDTH 16 0
BBX 16 16 0 -2
BITMAP
0040
2044
1bfe
0844
07ff
4044
33fc
1040
0bfc
7040
1044
17fe
1040
1040
0000
0000
ENDCHAR
STARTCHAR ch-295
ENCODING 295
SWIDTH 1000 0
DWIDTH 16 0
BBX 16 16 0 -2
BITMAP
2040
1bff
0840
4080
24fc
2584
0984
0afc
1484
7084
10fc
1084
1094
1088
0000
0000
ENDCHAR
STARTCHAR ch-296
ENCODING 296
SWIDTH 1000 0
DWIDTH 16 0
BBX 16 16 0 -2
BITMAP
4020
3022
17ff
0104
4202
3409
1108
0488
0850
1020
7050
1088
1104
1603
0000
0000
ENDCHAR
STARTCHAR ch-297
ENCODING 297
SWIDTH 1000 0
DWIDTH 16 0
BBX 16 16 0 -2
BITMAP
4020
3221
17ff
0221
43ff
3221
13ff
0221
1024
2028
6010
2029
20c5
2303
0000
0000
ENDCHAR
STARTCHAR ch-298
ENCODING 298
SWIDTH 1000 0
DWIDTH 16 0
BBX 16 16 0 -2
BITMAP
2110
1910
0910
47fe
2110
2110
0910
0912
17ff
6000
2110
2208
2406
2802
0000
0000
ENDCHAR
STARTCHAR ch-299
ENCODING 299
SWIDTH 1000 0
DWIDTH 16 0
BBX 16 16 0 -2
BITMAP
2010
1820
0840
41fe
214a
254a
094a
094a
114a
714a
114a
114a
17ff
1000
0000
0000
ENDCHAR
STARTCHAR ch-300
ENCODING 300
SWIDTH 1000 0
DWIDTH 16 0
BBX 16 16 0 -2
BITMAP
47fc
3404
1404
07fc
4444
3474
1494
0514
1494
6464
2444
2585
2405
2803
0000
0000
ENDCHAR
STARTCHAR ch-301
ENCODING 301
SWIDTH 1000 0
DWIDTH 16 0
BBX 16 16 0 -2
BITMAP
47ff
3400
1400
05ff
4410
3410
15ff
0410
0c10
15ff
6400
2400
27ff
2400
0000
0000
ENDCHAR
STARTCHAR ch-302
ENCODING 302
SWIDTH 1000 0
DWIDTH 16 0
BBX 16 16 0 -2
BITMAP
2050
1850
0a52
4156
2558
2450
08d8
0956
1252
7050
1091
1111
1211
140f
0000
0000
ENDCHAR
STARTCHAR ch-303
ENCODING 303
SWIDTH 1000 0
DWIDTH 16 0
BBX 16 16 0 -2
BITMAP
0800
097f
7e11
0811
7f11
0811
7f21
0886
0088
1eb0
04a0
0890
708f
0180
0000
0000
ENDCHAR
STARTCHAR ch-304
ENCODING 304
SWIDTH 1000 0
DWIDTH 16 0
BBX 16 16 0 -2
BITMAP
43ff
3200
1200
0200
43fe
3202
1202
0202
0bfe
1200
6200
2200
23ff
2200
0000
0000
ENDCHAR
STARTCHAR ch-305
ENCODING 305
SWIDTH 1000 0
DWIDTH 16 0
BBX 16 16 0 -2
BITMAP
27ff
1104
0904
41fc
3104
1104
05fc
0904
1104
7107
11fc
1704
1004
0004
0000
0000
ENDCHAR
STARTCHAR ch-306
ENCODING 306
SWIDTH 1000 0
DWIDTH 16 0
BBX 16 16 0 -2
BITMAP
2092
1892
0892
4092
3092
15b6
0492
0892
0892
7092
1112
1112
1202
1002
0000
0000
ENDCHAR
STARTCHAR ch-307
ENCODING 307
SWIDTH 1000 0
DWIDTH 16 0
BBX 16 16 0 -2
BITMAP
2200
1200
1202
4fdf
2252
2252
0a52
0a52
1452
7292
1112
129e
1452
1820
0000
0000
ENDCHAR
STARTCHAR ch-308
ENCODING 308
SWIDTH 1000 0
DWIDTH 16 0
BBX 16 16 0 -2
BITMAP
4104
3088
1050
03fe
4088
3088
1088
07ff
0888
1088
7108
1208
1408
1008
0000
0000
ENDCHAR
STARTCHAR ch-309
ENCODING 309
SWIDTH 1000 0
DWIDTH 16 0
BBX 16 16 0 -2
BITMAP
2080
1882
08ff
4102
2202
29f2
0912
0912
11f2
7112
1112
11f2
1014
1008
0000
0000
ENDCHAR
STARTCHAR ch-310
ENCODING 310
SWIDTH 1000 0
DWIDTH 16 0
BBX 16 16 0 -2
BITMAP
2000
18c0
0880
41ff
3201
118d
0555
0925
1155
718d
1105
11fd
1001
1006
0000
0000
ENDCHAR
STARTCHAR ch-311
ENCODING 311
SWIDTH 1000 0
DWIDTH 16 0
BBX 16 16 0 -2
BITMAP
4000
37ff
1040
0088
4104
33fe
1022
0420
0820
13fe
7020
1020
1022
17ff
0000
0000
ENDCHAR
STARTCHAR ch-312
ENCODING 312
SWIDTH 1000 0
DWIDTH 16 0
BBX 16 16 0 -2
BITMAP
4020
3222
1124
00a8
4022
37ff
1090
0490
0890
7090
1091
1111
1211
141f
0000
0000
ENDCHAR
STARTCHAR ch-313
ENCODING 313
SWIDTH 1000 0
DWIDTH 16 0
BBX 16 16 0 -2
BITMAP
2000
1804
0bfe
4000
31fc
1104
0504
09fc
1104
7104
11fc
1000
1002
17ff
0000
0000
ENDCHAR
STARTCHAR ch-314
ENCODING 314
SWIDTH 1000 0
DWIDTH 16 0
BBX 16 16 0 -2
BITMAP
4080
30fe
1104
0288
4450
3020
1040
0480
09fe
7282
1082
1082
10fe
1082
0000
0000
ENDCHAR
STARTCHAR ch-315
ENCODING 315
SWIDTH 1000 0
DWIDTH 16 0
BBX 16 16 0 -2
BITMAP
2008
181c
0be0
4020
3022
17ff
0420
0824
09fe
1104
7104
1104
11fc
1104
0000
0000
ENDCHAR
STARTCHAR ch-316
ENCODING 316
SWIDTH 1000 0
DWIDTH 16 0
BBX 16 16 0 -2
BITMAP
2020
1824
0bfe
4020
3022
17ff
0820
1024
73fe
1020
1020
1022
17ff
1000
0000
0000
ENDCHAR
STARTCHAR ch-317
ENCODING 317
SWIDTH 1000 0
DWIDTH 16 0
BBX 16 16 0 -2
BITMAP
2020
1850
0850
4088
3107
1602
01fc
0800
11fc
7104
1104
1104
11fc
1104
0000
0000
ENDCHAR
STARTCHAR ch-318
ENCODING 318
SWIDTH 1000 0
DWIDTH 16 0
BBX 16 16 0 -2
BITMAP
1830
09c4
021e
42e0
32a0
12a0
06a2
0a96
1298
7290
1288
14a7
14c2
0880
0000
0000
ENDCHAR
STARTCHAR ch-319
ENCODING 319
SWIDTH 1000 0
DWIDTH 16 0
BBX 16 16 0 -2
BITMAP
4020
37ff
1050
0088
4104
32fa
1401
03fe
0880
10fe
7002
1002
1004
1038
0000
0000
ENDCHAR
STARTCHAR ch-320
ENCODING 320
SWIDTH 1000 0
DWIDTH 16 0
BBX 16 16 0 -2
BITMAP
4000
3088
1088
0088
47ff
3489
1489
0489
17ff
6489
2489
2489
27ff
2401
0000
0000
ENDCHAR
STARTCHAR ch-321
ENCODING 321
SWIDTH 1000 0
DWIDTH 16 0
BBX 16 16 0 -2
BITMAP
0040
2022
1bff
0820
4048
3084
15fe
0402
0924
0924
3124
1124
1224
1423
0000
0000
ENDCHAR
STARTCHAR ch-322
ENCODING 322
SWIDTH 1000 0
DWIDTH 16 0
BBX 16 16 0 -2
BITMAP
4104
3088
1050
03fe
4020
3020
17ff
0020
0820
7050
1088
1104
1202
1401
0000
0000
ENDCHAR
STARTCHAR ch-344
ENCODING 344
SWIDTH 1000 0
DWIDTH 16 0
BBX 16 16 0 -2
BITMAP
43fe
3202
1202
03fe
4204
33f8
1220
03fc
0a20
13fe
6220
2221
2421
283f
0000
0000
ENDCHAR
STARTCHAR ch-345
ENCODING 345
SWIDTH 1000 0
DWIDTH 16 0
BBX 16 16 0 -2
BITMAP
2106
1938
0920
47e0
3122
113f
0564
09a4
1724
7124
1124
1144
1584
1204
0000
0000
ENDCHAR
STARTCHAR ch-346
ENCODING 346
SWIDTH 1000 0
DWIDTH 16 0
BBX 16 16 0 -2
BITMAP
2020
1848
0884
43fe
3088
1108
0287
08f8
1188
7250
1420
1058
1087
1302
0000
0000
ENDCHAR
STARTCHAR ch-350
ENCODING 350
SWIDTH 1000 0
DWIDTH 16 0
BBX 16 16 0 -2
BITMAP
0004
21fe
1904
4104
25fc
2420
0820
0924
113e
7120
11a0
1160
1218
1407
0000
0000
ENDCHAR
STARTCHAR ch-351
ENCODING 351
SWIDTH 1000 0
DWIDTH 16 0
BBX 16 16 0 -2
BITMAP
4088
3110
123f
0640
4202
3282
12a2
02a2
0aa2
1294
7208
1214
1222
1241
0000
0000
ENDCHAR
STARTCHAR ch-352
ENCODING 352
SWIDTH 1000 0
DWIDTH 16 0
BBX 16 16 0 -2
BITMAP
0104
20d8
1820
08d8
4124
2040
27ff
08a0
09fe
1322
7522
1122
1124
1020
0000
0000
ENDCHAR
STARTCHAR ch-353
ENCODING 353
SWIDTH 1000 0
DWIDTH 16 0
BBX 16 16 0 -2
BITMAP
4020
37ff
1020
0020
47ff
3401
15fd
0008
0810
13fe
7010
1010
1050
1020
0000
0000
ENDCHAR
STARTCHAR ch-354
ENCODING 354
SWIDTH 1000 0
DWIDTH 16 0
BBX 16 16 0 -2
BITMAP
4002
b7ff
1000
03fe
4202
3202
1202
03fe
0a02
1000
6202
2104
2088
27ff
0000
0000
ENDCHAR
STARTCHAR ch-355
ENCODING 355
SWIDTH 1000 0
DWIDTH 16 0
BBX 16 16 0 -2
BITMAP
0040
2020
1bff
0a01
4412
21f8
2400
0bfe
0890
3090
1090
1111
1211
140f
0000
0000
ENDCHAR
STARTCHAR ch-356
ENCODING 356
SWIDTH 1000 0
DWIDTH 16 0
BBX 16 16 0 -2
BITMAP
4020
37ff
1401
0421
4020
33fe
1040
0490
0920
1240
7084
1102
13ff
1001
0000
0000
ENDCHAR
STARTCHAR ch-357
ENCODING 357
SWIDTH 1000 0
DWIDTH 16 0
BBX 16 16 0 -2
BITMAP
41fe
3102
1102
01fe
4000
33ff
1221
0221
0bff
1200
6200
2201
2201
21ff
0000
0000
ENDCHAR
STARTCHAR ch-358
ENCODING 358
SWIDTH 1000 0
DWIDTH 16 0
BBX 16 16 0 -2
BITMAP
2028
1824
0fff
4020
33fe
1222
0222
0bfe
1222
7222
13fe
1222
122a
1224
0000
0000
ENDCHAR
STARTCHAR ch-359
ENCODING 359
SWIDTH 1000 0
DWIDTH 16 0
BBX 16 16 0 -2
BITMAP
43fe
3202
1202
0202
43fe
3000
1002
05fc
0820
1020
73fe
1020
1020
13fe
0000
0000
ENDCHAR
STARTCHAR ch-360
ENCODING 360
SWIDTH 1000 0
DWIDTH 16 0
BBX 16 16 0 -2
BITMAP
2020
1810
09ff
4101
3111
1010
01ff
0410
1858
7094
1112
1211
1010
1010
0000
0000
ENDCHAR
STARTCHAR ch-361
ENCODING 361
SWIDTH 1000 0
DWIDTH 16 0
BBX 16 16 0 -2
BITMAP
2120
1924
09fe
0220
4420
3022
17ff
0000
09fc
1104
6104
2104
21fc
2104
0000
0000
ENDCHAR
STARTCHAR ch-362
ENCODING 362
SWIDTH 1000 0
DWIDTH 16 0
BBX 16 16 0 -2
BITMAP
4040
3024
11fe
0104
41fc
3104
11fc
0142
0924
1118
6108
2147
2182
2100
0000
0000
ENDCHAR
STARTCHAR ch-364
ENCODING 364
SWIDTH 1000 0
DWIDTH 16 0
BBX 16 16 0 -2
BITMAP
43fe
3222
1222
03fe
4222
3222
13fe
0020
0824
13fe
6020
2020
2022
27ff
0000
0000
ENDCHAR
STARTCHAR ch-365
ENCODING 365
SWIDTH 1000 0
DWIDTH 16 0
BBX 16 16 0 -2
BITMAP
47ff
3020
13fe
0222
43fe
3222
13fe
0222
08a0
1060
7060
1090
1108
1607
0000
0000
ENDCHAR
STARTCHAR ch-366
ENCODING 366
SWIDTH 1000 0
DWIDTH 16 0
BBX 16 16 0 -2
BITMAP
201e
1be0
0804
4124
3128
1000
05f8
0810
1022
67ff
2020
2020
20a0
2040
0000
0000
ENDCHAR
STARTCHAR ch-367
ENCODING 367
SWIDTH 1000 0
DWIDTH 16 0
BBX 16 16 0 -2
BITMAP
23fe
1840
0840
43f8
2488
2488
0888
0fff
1000
71fc
1104
1104
11fc
1104
0000
0000
ENDCHAR
STARTCHAR ch-368
ENCODING 368
SWIDTH 1000 0
DWIDTH 16 0
BBX 16 16 0 -2
BITMAP
4021
33e1
1085
0085
4085
37f5
1085
0085
09c5
12a1
7491
1081
1085
1082
0000
0000
ENDCHAR
STARTCHAR ch-372
ENCODING 372
SWIDTH 1000 0
DWIDTH 16 0
BBX 16 16 0 -2
BITMAP
2088
1904
0a22
4020
3050
1050
0488
0904
13ff
7504
1104
1104
11fc
1104
0000
0000
ENDCHAR
STARTCHAR ch-373
ENCODING 373
SWIDTH 1000 0
DWIDTH 16 0
BBX 16 16 0 -2
BITMAP
4020
33f1
1222
02a4
42a8
3221
17f2
0224
0a28
1221
6222
2224
22a8
2440
0000
0000
ENDCHAR
STARTCHAR ch-374
ENCODING 374
SWIDTH 1000 0
DWIDTH 16 0
BBX 16 16 0 -2
BITMAP
4020
37ff
1401
0020
4120
31fc
1120
0220
0820
13fe
7020
1020
1020
1020
0000
0000
ENDCHAR
STARTCHAR ch-375
ENCODING 375
SWIDTH 1000 0
DWIDTH 16 0
BBX 16 16 0 -2
BITMAP
4100
31fe
1200
01fc
7144
1124
07ff
0944
0924
7224
13fe
1004
1014
1008
0000
0000
ENDCHAR
STARTCHAR ch-376
ENCODING 376
SWIDTH 1000 0
DWIDTH 16 0
BBX 16 16 0 -2
BITMAP
21fe
1804
08fc
4004
31fc
1000
03ff
0a01
14fa
7088
1050
1078
1187
1602
0000
0000
ENDCHAR
STARTCHAR ch-377
ENCODING 377
SWIDTH 1000 0
DWIDTH 16 0
BBX 16 16 0 -2
BITMAP
4020
37ff
1020
0124
4124
32aa
1471
0020
0820
1050
6088
2104
2202
2c01
0000
0000
ENDCHAR
STARTCHAR ch-378
ENCODING 378
SWIDTH 1000 0
DWIDTH 16 0
BBX 16 16 0 -2
BITMAP
4108
3108
117f
05c9
4549
3549
1149
057f
0949
1108
7108
1108
1108
1108
0000
0000
ENDCHAR
STARTCHAR ch-379
ENCODING 379
SWIDTH 1000 0
DWIDTH 16 0
BBX 16 16 0 -2
BITMAP
47ff
3451
1451
0491
451f
3401
14f9
0489
1489
64f9
2489
2401
2405
2402
0000
0000
ENDCHAR
STARTCHAR ch-380
ENCODING 380
SWIDTH 1000 0
DWIDTH 16 0
BBX 16 16 0 -2
BITMAP
0080
2088
18fe
0908
4110
23fe
2622
0a22
0bfe
1250
7050
1091
1111
160f
0000
0000
ENDCHAR
STARTCHAR ch-381
ENCODING 381
SWIDTH 1000 0
DWIDTH 16 0
BBX 16 16 0 -2
BITMAP
4001
37fe
1124
0222
4080
3088
17ff
0088
0888
7050
1020
1050
1088
1707
0000
0000
ENDCHAR
STARTCHAR ch-382
ENCODING 382
SWIDTH 1000 0
DWIDTH 16 0
BBX 16 16 0 -2
BITMAP
4020
3020
13fe
0020
4020
37ff
1088
0088
0a8a
128a
6489
2088
20a8
2110
0000
0000
ENDCHAR
STARTCHAR ch-383
ENCODING 383
SWIDTH 1000 0
DWIDTH 16 0
BBX 16 16 0 -2
BITMAP
43fe
3202
1202
03fe
4202
3202
13fe
0202
0a02
13fe
6088
2104
2202
2401
0000
0000
ENDCHAR
STARTCHAR ch-384
ENCODING 384
SWIDTH 1000 0
DWIDTH 16 0
BBX 16 16 0 -2
BITMAP
21fc
1904
0904
01fc
4104
31fc
1104
0504
09fc
7050
1050
1091
1111
121f
0000
0000
ENDCHAR
STARTCHAR ch-386
ENCODING 386
SWIDTH 1000 0
DWIDTH 16 0
BBX 16 16 0 -2
BITMAP
2040
18a0
0910
4208
2407
2bfa
0040
0844
17fe
7040
1248
1446
1142
1080
0000
0000
ENDCHAR
STARTCHAR ch-387
ENCODING 387
SWIDTH 1000 0
DWIDTH 16 0
BBX 16 16 0 -2
BITMAP
47ff
3421
1421
07ff
4421
3421
1471
04a9
1525
6623
2421
2401
27ff
2401
0000
0000
ENDCHAR
STARTCHAR ch-388
ENCODING 388
SWIDTH 1000 0
DWIDTH 16 0
BBX 16 16 0 -2
BITMAP
4020
33fe
1222
03fe
4222
33fe
1000
07ff
0880
1100
71fe
1002
1004
1038
0000
0000
ENDCHAR
STARTCHAR ch-389
ENCODING 389
SWIDTH 1000 0
DWIDTH 16 0
BBX 16 16 0 -2
BITMAP
4000
33fe
1202
03fe
4202
33fe
1202
0020
0824
13fe
6020
2020
2022
27ff
0000
0000
ENDCHAR
STARTCHAR ch-390
ENCODING 390
SWIDTH 1000 0
DWIDTH 16 0
BBX 16 16 0 -2
BITMAP
4002
301f
13c4
0244
4244
3244
13df
0244
0a44
1244
73c4
1244
1004
1004
0000
0000
ENDCHAR
STARTCHAR ch-391
ENCODING 391
SWIDTH 1000 0
DWIDTH 16 0
BBX 16 16 0 -2
BITMAP
43fe
3000
1111
0222
4444
3222
1111
0000
0bfe
1020
6020
2020
2022
27ff
0000
0000
ENDCHAR
STARTCHAR ch-392
ENCODING 392
SWIDTH 1000 0
DWIDTH 16 0
BBX 16 16 0 -2
BITMAP
4020
3124
10a8
00b0
41fc
3104
1104
09fc
1104
61fc
2104
2104
2114
2208
0000
0000
ENDCHAR
STARTCHAR ch-393
ENCODING 393
SWIDTH 1000 0
DWIDTH 16 0
BBX 16 16 0 -2
BITMAP
4020
3124
113e
4120
3122
17ff
0020
0922
1124
7228
1010
1060
1180
1600
0000
0000
ENDCHAR
STARTCHAR ch-394
ENCODING 394
SWIDTH 1000 0
DWIDTH 16 0
BBX 16 16 0 -2
BITMAP
47fe
3042
1342
0082
4102
3604
1038
0000
0842
1521
6510
2102
2102
21fe
0000
0000
ENDCHAR
STARTCHAR ch-395
ENCODING 395
SWIDTH 1000 0
DWIDTH 16 0
BBX 16 16 0 -2
BITMAP
4040
3020
17ff
0401
4421
3024
1022
07ff
1020
2050
6088
2104
2202
2401
0000
0000
ENDCHAR
STARTCHAR ch-396
ENCODING 396
SWIDTH 1000 0
DWIDTH 16 0
BBX 16 16 0 -2
BITMAP
23fc
1808
0850
4022
33ff
1222
0622
0bfe
1222
7222
13fe
1222
122a
1204
0000
0000
ENDCHAR
STARTCHAR ch-397
ENCODING 397
SWIDTH 1000 0
DWIDTH 16 0
BBX 16 16 0 -2
BITMAP
4040
3042
13fc
0048
4050
37ff
1080
0178
0a10
15ff
6010
2010
2050
2020
0000
0000
ENDCHAR
STARTCHAR ch-398
ENCODING 398
SWIDTH 1000 0
DWIDTH 16 0
BBX 16 16 0 -2
BITMAP
4006
37b8
1088
0108
4128
322e
13a8
00a8
0ca8
1328
617f
2280
2440
283f
0000
0000
ENDCHAR
STARTCHAR ch-400
ENCODING 400
SWIDTH 1000 0
DWIDTH 16 0
BBX 16 16 0 -2
BITMAP
404a
3389
1088
0088
47ff
3088
10c9
0489
098a
728c
1499
10a9
1505
1203
0000
0000
ENDCHAR
STARTCHAR ch-401
ENCODING 401
SWIDTH 1000 0
DWIDTH 16 0
BBX 16 16 0 -2
BITMAP
0020
2022
1bff
0820
4020
25fc
2524
0924
11fc
7070
10a8
1127
1622
1020
0000
0000
ENDCHAR
STARTCHAR ch-402
ENCODING 402
SWIDTH 1000 0
DWIDTH 16 0
BBX 16 16 0 -2
BITMAP
4000
33fe
1042
07ff
4042
33fe
1040
0080
11fe
2282
6482
2882
20fe
2082
0000
0000
ENDCHAR
STARTCHAR ch-403
ENCODING 403
SWIDTH 1000 0
DWIDTH 16 0
BBX 16 16 0 -2
BITMAP
21fe
1902
0902
41fe
3000
11fe
0502
0902
11fe
7102
11fe
1102
110a
1104
0000
0000
ENDCHAR
STARTCHAR ch-404
ENCODING 404
SWIDTH 1000 0
DWIDTH 16 0
BBX 16 16 0 -2
BITMAP
2020
1a22
0a22
43fe
2022
2450
0888
0977
1202
75fc
1004
1008
1010
1020
0000
0000
ENDCHAR
STARTCHAR ch-405
ENCODING 405
SWIDTH 1000 0
DWIDTH 16 0
BBX 16 16 0 -2
BITMAP
2088
1850
0bfc
4024
3024
13fc
0220
0a22
13ff
6062
20a2
212a
2224
2020
0000
0000
ENDCHAR
STARTCHAR ch-407
ENCODING 407
SWIDTH 1000 0
DWIDTH 16 0
BBX 16 16 0 -2
BITMAP
4088
3104
1202
05fd
4104
3104
1104
05fc
0848
1048
7048
1089
1109
160f
0000
0000
ENDCHAR
STARTCHAR ch-408
ENCODING 408
SWIDTH 1000 0
DWIDTH 16 0
BBX 16 16 0 -2
BITMAP
4020
3040
1082
03ff
4081
3080
11fe
0210
0810
13ff
7028
1044
1082
1101
0000
0000
ENDCHAR
STARTCHAR ch-426
ENCODING 426
SWIDTH 1000 0
DWIDTH 16 0
BBX 16 16 0 -2
BITMAP
2040
1824
0bfe
4108
3090
1062
07ff
0800
11fc
7104
1104
1104
11fc
1104
0000
0000
ENDCHAR
STARTCHAR ch-427
ENCODING 427
SWIDTH 1000 0
DWIDTH 16 0
BBX 16 16 0 -2
BITMAP
0040
2022
1bff
0a02
4404
21f8
2508
09f8
0900
31fc
1104
1104
11fc
1104
0000
0000
ENDCHAR
STARTCHAR ch-428
ENCODING 428
SWIDTH 1000 0
DWIDTH 16 0
BBX 16 16 0 -2
BITMAP
4020
33fe
1020
0020
47ff
3104
1088
07ff
0820
7020
13fe
1020
1020
1020
0000
0000
ENDCHAR
STARTCHAR ch-430
ENCODING 430
SWIDTH 1000 0
DWIDTH 16 0
BBX 16 16 0 -2
BITMAP
47e1
3421
1429
07e9
4489
3489
17e9
06a9
0ea9
16a9
66a9
26e1
2885
2082
0000
0000
ENDCHAR
STARTCHAR ch-431
ENCODING 431
SWIDTH 1000 0
DWIDTH 16 0
BBX 16 16 0 -2
BITMAP
21fe
1910
0910
41fe
3110
1112
05ff
0910
1110
71fe
1210
1212
15ff
1800
0000
0000
ENDCHAR
STARTCHAR ch-434
ENCODING 434
SWIDTH 1000 0
DWIDTH 16 0
BBX 16 16 0 -2
BITMAP
4040
3022
13ff
0090
409e
3122
1132
034c
05c4
1128
6110
2128
2147
2102
0000
0000
ENDCHAR
STARTCHAR ch-435
ENCODING 435
SWIDTH 1000 0
DWIDTH 16 0
BBX 16 16 0 -2
BITMAP
4040
3020
17ff
0451
4489
3104
1202
0008
09fc
7020
1020
1020
1022
17ff
0000
0000
ENDCHAR
STARTCHAR ch-436
ENCODING 436
SWIDTH 1000 0
DWIDTH 16 0
BBX 16 16 0 -2
BITMAP
4040
3020
17ff
0401
4501
31de
1252
0452
1252
6154
2091
2111
2211
241f
0000
0000
ENDCHAR
STARTCHAR ch-437
ENCODING 437
SWIDTH 1000 0
DWIDTH 16 0
BBX 16 16 0 -2
BITMAP
4000
31fe
1004
023a
4222
3326
12aa
0272
0aaa
1326
62a2
2242
23fe
2202
0000
0000
ENDCHAR
STARTCHAR ch-439
ENCODING 439
SWIDTH 1000 0
DWIDTH 16 0
BBX 16 16 0 -2
BITMAP
4020
37ff
1020
03fe
4222
33fe
1222
03fe
08a8
1124
7222
1421
10a0
1040
0000
0000
ENDCHAR
STARTCHAR ch-440
ENCODING 440
SWIDTH 1000 0
DWIDTH 16 0
BBX 16 16 0 -2
BITMAP
23ff
1a01
0a21
43ff
3221
1221
06fd
0a85
1285
7285
12fd
1201
13ff
1201
0000
0000
ENDCHAR
STARTCHAR ch-442
ENCODING 442
SWIDTH 1000 0
DWIDTH 16 0
BBX 16 16 0 -2
BITMAP
43fe
3202
1202
03fe
4210
3210
13ff
0210
0a10
12fe
7282
1282
14fe
1082
0000
0000
ENDCHAR
STARTCHAR ch-443
ENCODING 443
SWIDTH 1000 0
DWIDTH 16 0
BBX 16 16 0 -2
BITMAP
4020
3050
1088
0104
42fa
3421
1020
03fe
0820
11fc
7104
1104
11fc
1104
0000
0000
ENDCHAR
STARTCHAR ch-444
ENCODING 444
SWIDTH 1000 0
DWIDTH 16 0
BBX 16 16 0 -2
BITMAP
4020
33fe
1000
01fc
4104
3104
11fc
0124
08a8
1124
6222
2421
20a0
2040
0000
0000
ENDCHAR
STARTCHAR ch-445
ENCODING 445
SWIDTH 1000 0
DWIDTH 16 0
BBX 16 16 0 -2
BITMAP
47fe
3208
1208
03ff
4208
3244
1283
0701
0bfe
1202
73fe
1202
13fe
1202
0000
0000
ENDCHAR
STARTCHAR ch-446
ENCODING 446
SWIDTH 1000 0
DWIDTH 16 0
BBX 16 16 0 -2
BITMAP
4020
3022
13f4
0068
40a4
3122
1621
0020
0bfe
1202
73fe
1202
13fe
1202
0000
0000
ENDCHAR
STARTCHAR ch-447
ENCODING 447
SWIDTH 1000 0
DWIDTH 16 0
BBX 16 16 0 -2
BITMAP
27ff
1840
0880
4342
2064
22b8
0130
0aa8
1468
70a4
1127
1222
10a0
1040
0000
0000
ENDCHAR
STARTCHAR ch-448
ENCODING 448
SWIDTH 1000 0
DWIDTH 16 0
BBX 16 16 0 -2
BITMAP
2020
1822
0bff
4202
3404
1000
03fe
0820
1120
713e
1120
1120
12e0
143f
0000
0000
ENDCHAR
STARTCHAR ch-450
ENCODING 450
SWIDTH 1000 0
DWIDTH 16 0
BBX 16 16 0 -2
BITMAP
43fe
3202
13fe
0202
43fe
3000
13fe
0008
0fff
1108
7088
1008
1028
1010
0000
0000
ENDCHAR
STARTCHAR ch-452
ENCODING 452
SWIDTH 1000 0
DWIDTH 16 0
BBX 16 16 0 -2
BITMAP
4124
3248
1490
0248
4124
3124
13fe
0222
0a22
13fe
6222
2222
23fe
2202
0000
0000
ENDCHAR
STARTCHAR ch-453
ENCODING 453
SWIDTH 1000 0
DWIDTH 16 0
BBX 16 16 0 -2
BITMAP
4106
3138
1120
07e0
4122
333f
13a4
0564
1524
6924
2124
2144
2184
2104
0000
0000
ENDCHAR
STARTCHAR ch-454
ENCODING 454
SWIDTH 1000 0
DWIDTH 16 0
BBX 16 16 0 -2
BITMAP
20c8
1830
084c
40a2
37ff
1040
04fc
0984
12fc
7484
10fc
1084
1094
1088
0000
0000
ENDCHAR
STARTCHAR ch-455
ENCODING 455
SWIDTH 1000 0
DWIDTH 16 0
BBX 16 16 0 -2
BITMAP
4108
37fe
1108
0108
41f8
3108
1108
01f8
0908
1108
6fff
2108
2206
2402
0000
0000
ENDCHAR
STARTCHAR ch-456
ENCODING 456
SWIDTH 1000 0
DWIDTH 16 0
BBX 16 16 0 -2
BITMAP
43ff
3201
1201
03ff
4208
3289
1289
06ff
0a08
7289
1289
1289
14ff
1081
0000
0000
ENDCHAR
STARTCHAR ch-457
ENCODING 457
SWIDTH 1000 0
DWIDTH 16 0
BBX 16 16 0 -2
BITMAP
43fe
3222
13fe
0222
43fe
3222
1020
07ff
0870
10a8
7124
1222
1421
1020
0000
0000
ENDCHAR
STARTCHAR ch-458
ENCODING 458
SWIDTH 1000 0
DWIDTH 16 0
BBX 16 16 0 -2
BITMAP
4080
31ff
1202
0404
4108
3210
1407
0401
1401
679f
2401
2401
27ff
2401
0000
0000
ENDCHAR
STARTCHAR ch-459
ENCODING 459
SWIDTH 1000 0
DWIDTH 16 0
BBX 16 16 0 -2
BITMAP
2108
1108
0108
4fff
2108
2908
0b9c
135c
152a
652a
2949
2108
2108
2108
0000
0000
ENDCHAR
STARTCHAR ch-460
ENCODING 460
SWIDTH 1000 0
DWIDTH 16 0
BBX 16 16 0 -2
BITMAP
4020
3124
10a4
0022
43ff
3202
1202
02fa
0a8a
128a
62fa
2202
220a
2204
0000
0000
ENDCHAR
STARTCHAR ch-461
ENCODING 461
SWIDTH 1000 0
DWIDTH 16 0
BBX 16 16 0 -2
BITMAP
43fe
3222
1222
02fa
4222
33fe
1202
02fa
0a8a
128a
72fa
1202
120a
1404
0000
0000
ENDCHAR
STARTCHAR ch-463
ENCODING 463
SWIDTH 1000 0
DWIDTH 16 0
BBX 16 16 0 -2
BITMAP
43fe
3202
13fe
0202
43fe
3000
13fe
0020
17ff
2020
6050
2088
2104
2603
0000
0000
ENDCHAR
STARTCHAR ch-464
ENCODING 464
SWIDTH 1000 0
DWIDTH 16 0
BBX 16 16 0 -2
BITMAP
43fe
3202
13fe
0202
43fe
3202
1000
07ff
1401
67ff
2401
2401
27ff
2401
0000
0000
ENDCHAR
STARTCHAR ch-465
ENCODING 465
SWIDTH 1000 0
DWIDTH 16 0
BBX 16 16 0 -2
BITMAP
2100
19c0
093e
4122
3122
17e2
0914
1394
7548
1908
1114
1122
1543
1282
0000
0000
ENDCHAR
STARTCHAR ch-466
ENCODING 466
SWIDTH 1000 0
DWIDTH 16 0
BBX 16 16 0 -2
BITMAP
4020
37ff
1020
03fe
4022
37ff
1022
03fe
0888
17ff
6088
2070
2050
278f
0000
0000
ENDCHAR
STARTCHAR ch-467
ENCODING 467
SWIDTH 1000 0
DWIDTH 16 0
BBX 16 16 0 -2
BITMAP
4088
37ff
1088
0020
4022
37ff
1040
047e
0842
1082
7102
1204
1028
1010
0000
0000
ENDCHAR
STARTCHAR ch-468
ENCODING 468
SWIDTH 1000 0
DWIDTH 16 0
BBX 16 16 0 -2
BITMAP
4020
37ff
1020
0040
41fc
3104
11fc
0504
09fc
1104
71fc
1104
17ff
1000
0000
0000
ENDCHAR
STARTCHAR ch-469
ENCODING 469
SWIDTH 1000 0
DWIDTH 16 0
BBX 16 16 0 -2
BITMAP
4020
3020
13fe
0020
4020
37ff
1104
0204
1427
2020
63fe
2020
2020
27ff
0000
0000
ENDCHAR
STARTCHAR ch-470
ENCODING 470
SWIDTH 1000 0
DWIDTH 16 0
BBX 16 16 0 -2
BITMAP
2044
187e
0840
43fc
3204
13fc
0604
0bfc
1040
7042
1fff
1040
1040
1040
0000
0000
ENDCHAR
STARTCHAR ch-471
ENCODING 471
SWIDTH 1000 0
DWIDTH 16 0
BBX 16 16 0 -2
BITMAP
4100
31ff
1201
0041
4249
3151
1041
03f9
0841
1151
7249
1041
104a
1004
0000
0000
ENDCHAR
STARTCHAR ch-472
ENCODING 472
SWIDTH 1000 0
DWIDTH 16 0
BBX 16 16 0 -2
BITMAP
2100
1102
13ff
4482
21fa
2242
0842
0bfe
1042
724a
13fa
100a
1002
100c
0000
0000
ENDCHAR
STARTCHAR ch-473
ENCODING 473
SWIDTH 1000 0
DWIDTH 16 0
BBX 16 16 0 -2
BITMAP
4040
3020
13ff
0201
4000
31fc
1000
03ff
08a8
1124
7222
1422
10a0
1040
0000
0000
ENDCHAR
STARTCHAR ch-474
ENCODING 474
SWIDTH 1000 0
DWIDTH 16 0
BBX 16 16 0 -2
BITMAP
43fc
3200
13fe
0202
43fe
3220
1224
03fe
0a20
1220
6250
2288
2504
2a03
0000
0000
ENDCHAR
STARTCHAR ch-475
ENCODING 475
SWIDTH 1000 0
DWIDTH 16 0
BBX 16 16 0 -2
BITMAP
4281
3281
13e5
0485
4085
37f5
1085
03e5
0aa5
12a5
72a1
12a1
1085
1082
0000
0000
ENDCHAR
STARTCHAR ch-476
ENCODING 476
SWIDTH 1000 0
DWIDTH 16 0
BBX 16 16 0 -2
BITMAP
47df
3451
1451
07df
4451
3451
17df
0451
1451
6451
2451
2451
2555
28a2
0000
0000
ENDCHAR
STARTCHAR ch-477
ENCODING 477
SWIDTH 1000 0
DWIDTH 16 0
BBX 16 16 0 -2
BITMAP
27be
14aa
14aa
44aa
27aa
2caa
0caa
14be
17a2
74a0
14a0
14a1
14a1
099f
0000
0000
ENDCHAR
STARTCHAR ch-478
ENCODING 478
SWIDTH 1000 0
DWIDTH 16 0
BBX 16 16 0 -2
BITMAP
2108
1928
0928
47e8
2124
2b44
0b93
1350
1550
7520
1924
1142
117e
1102
0000
0000
ENDCHAR
STARTCHAR ch-479
ENCODING 479
SWIDTH 1000 0
DWIDTH 16 0
BBX 16 16 0 -2
BITMAP
4050
3050
13fe
0252
4252
33fe
1252
0252
17ff
2000
6108
2204
2402
2801
0000
0000
ENDCHAR
STARTCHAR ch-480
ENCODING 480
SWIDTH 1000 0
DWIDTH 16 0
BBX 16 16 0 -2
BITMAP
23fe
1a22
0a22
43fe
2a22
2a22
0bfe
0800
1002
77ff
1088
1088
1108
1208
0000
0000
ENDCHAR
STARTCHAR ch-481
ENCODING 481
SWIDTH 1000 0
DWIDTH 16 0
BBX 16 16 0 -2
BITMAP
4020
3222
11a6
00a8
4050
308e
1124
0124
08ac
1050
6048
2088
2107
2602
0000
0000
ENDCHAR
STARTCHAR ch-482
ENCODING 482
SWIDTH 1000 0
DWIDTH 16 0
BBX 16 16 0 -2
BITMAP
400a
3009
17ff
0008
4008
33e8
1228
0228
0be9
100a
77ec
1009
1075
1003
0000
0000
ENDCHAR
STARTCHAR ch-483
ENCODING 483
SWIDTH 1000 0
DWIDTH 16 0
BBX 16 16 0 -2
BITMAP
4080
310e
1202
0202
43de
3202
1202
03fe
0890
1090
7111
1211
1411
181f
0000
0000
ENDCHAR
STARTCHAR ch-484
ENCODING 484
SWIDTH 1000 0
DWIDTH 16 0
BBX 16 16 0 -2
BITMAP
4208
3108
1148
0fe8
4214
33a2
12c1
0290
0a8c
1284
6290
248c
2a86
2102
0000
0000
ENDCHAR
STARTCHAR ch-485
ENCODING 485
SWIDTH 1000 0
DWIDTH 16 0
BBX 16 16 0 -2
BITMAP
2080
18fe
0884
40fc
2504
2408
0bff
1222
7134
1068
11a4
1627
10a2
1040
0000
0000
ENDCHAR
STARTCHAR ch-486
ENCODING 486
SWIDTH 1000 0
DWIDTH 16 0
BBX 16 16 0 -2
BITMAP
4020
3050
1088
0107
46fa
3020
1020
0020
0bfe
1222
6124
20a8
2020
27ff
0000
0000
ENDCHAR
STARTCHAR ch-488
ENCODING 488
SWIDTH 1000 0
DWIDTH 16 0
BBX 16 16 0 -2
BITMAP
4001
33fe
1244
0128
43fe
3022
17ff
0022
0bfe
1022
6020
2020
20a0
2040
0000
0000
ENDCHAR
STARTCHAR ch-489
ENCODING 489
SWIDTH 1000 0
DWIDTH 16 0
BBX 16 16 0 -2
BITMAP
4020
33fe
1020
0020
47ff
3104
1282
04f9
0188
1250
6020
2050
2088
2f07
0000
0000
ENDCHAR
STARTCHAR ch-490
ENCODING 490
SWIDTH 1000 0
DWIDTH 16 0
BBX 16 16 0 -2
BITMAP
4070
3088
1104
0202
45fd
3000
13fe
0252
0a52
13fe
6252
2252
2252
2204
0000
0000
ENDCHAR
STARTCHAR ch-491
ENCODING 491
SWIDTH 1000 0
DWIDTH 16 0
BBX 16 16 0 -2
BITMAP
2004
181e
0be0
4242
3124
1080
001e
0be0
1020
77ff
1020
1024
13fe
1000
0000
0000
ENDCHAR
STARTCHAR ch-492
ENCODING 492
SWIDTH 1000 0
DWIDTH 16 0
BBX 16 16 0 -2
BITMAP
2040
1822
0bff
0088
4088
3088
1154
0222
0820
13ff
6020
2020
2020
2020
0000
0000
ENDCHAR
STARTCHAR ch-493
ENCODING 493
SWIDTH 1000 0
DWIDTH 16 0
BBX 16 16 0 -2
BITMAP
4001
33fe
1200
03fe
4202
33fe
1210
02fe
0a10
1238
7254
1292
1511
1010
0000
0000
ENDCHAR
STARTCHAR ch-494
ENCODING 494
SWIDTH 1000 0
DWIDTH 16 0
BBX 16 16 0 -2
BITMAP
4090
3092
11ff
0310
4510
31fe
1110
0110
09fe
1110
6110
2112
21ff
2100
0000
0000
ENDCHAR
STARTCHAR ch-495
ENCODING 495
SWIDTH 1000 0
DWIDTH 16 0
BBX 16 16 0 -2
BITMAP
4020
37ff
1080
0102
43ff
3000
11fe
0502
09fe
1102
71fe
1102
1102
1204
0000
0000
ENDCHAR
STARTCHAR ch-496
ENCODING 496
SWIDTH 1000 0
DWIDTH 16 0
BBX 16 16 0 -2
BITMAP
4070
3088
1104
0272
4401
31fc
1008
0410
0820
1000
7522
1511
1504
11fe
0000
0000
ENDCHAR
STARTCHAR ch-497
ENCODING 497
SWIDTH 1000 0
DWIDTH 16 0
BBX 16 16 0 -2
BITMAP
43ff
3201
148a
0084
4723
3020
1022
03ff
0870
10a8
6127
2622
2020
2020
0000
0000
ENDCHAR
STARTCHAR ch-498
ENCODING 498
SWIDTH 1000 0
DWIDTH 16 0
BBX 16 16 0 -2
BITMAP
4010
301e
1010
03ff
4221
32fd
1220
0220
0a3e
1248
7248
1248
1489
110f
0000
0000
ENDCHAR
STARTCHAR ch-499
ENCODING 499
SWIDTH 1000 0
DWIDTH 16 0
BBX 16 16 0 -2
BITMAP
4020
37ff
1000
01fc
4104
31fc
1000
00f8
0810
13fe
6020
2020
20a0
2040
0000
0000
ENDCHAR
STARTCHAR ch-500
ENCODING 500
SWIDTH 1000 0
DWIDTH 16 0
BBX 16 16 0 -2
BITMAP
4100
33ff
1451
0051
4091
3121
124a
0004
1040
2522
6511
2501
2104
21fe
0000
0000
ENDCHAR
STARTCHAR ch-501
ENCODING 501
SWIDTH 1000 0
DWIDTH 16 0
BBX 16 16 0 -2
BITMAP
4451
3451
1451
0451
47df
3401
17ff
0401
0fdf
1451
6451
2451
2451
2451
0000
0000
ENDCHAR
STARTCHAR ch-502
ENCODING 502
SWIDTH 1000 0
DWIDTH 16 0
BBX 16 16 0 -2
BITMAP
4020
37ff
1020
0124
4124
32aa
1471
0020
0870
10a8
7124
1623
1020
1020
0000
0000
ENDCHAR
STARTCHAR ch-503
ENCODING 503
SWIDTH 1000 0
DWIDTH 16 0
BBX 16 16 0 -2
BITMAP
43fc
3204
1204
03fc
4204
3204
13fc
0020
0a24
13ac
6230
2261
22a1
231f
0000
0000
ENDCHAR
STARTCHAR ch-505
ENCODING 505
SWIDTH 1000 0
DWIDTH 16 0
BBX 16 16 0 -2
BITMAP
4020
3022
13ff
0050
4088
3124
13ff
0124
09fc
1124
61fc
2021
2021
201f
0000
0000
ENDCHAR
STARTCHAR ch-506
ENCODING 506
SWIDTH 1000 0
DWIDTH 16 0
BBX 16 16 0 -2
BITMAP
4042
37ff
1050
0021
47d1
300f
1040
0044
0fff
1048
6050
2021
27d1
200f
0000
0000
ENDCHAR
STARTCHAR ch-507
ENCODING 507
SWIDTH 1000 0
DWIDTH 16 0
BBX 16 16 0 -2
BITMAP
43fe
3040
1042
07ff
4090
3088
1148
0247
0c40
1154
624a
2042
2140
2080
0000
0000
ENDCHAR
STARTCHAR ch-508
ENCODING 508
SWIDTH 1000 0
DWIDTH 16 0
BBX 16 16 0 -2
BITMAP
0088
3ed0
02e0
04a0
0898
1287
2102
0492
7d74
0e38
1654
6593
1452
0820
0000
0000
ENDCHAR
STARTCHAR ch-509
ENCODING 509
SWIDTH 1000 0
DWIDTH 16 0
BBX 16 16 0 -2
BITMAP
4104
3104
17ff
0104
4104
3020
1020
0520
093e
1120
7120
1120
1120
17ff
0000
0000
ENDCHAR
ENDFONT
